<svg width="28" height="28" viewBox="0 0 28 28" fill="none" xmlns="http://www.w3.org/2000/svg">
<path d="M27.3337 13.9998C27.3337 15.0518 26.4809 15.9046 25.4289 15.9046H15.9051V25.4284C15.9051 26.4804 15.0523 27.3332 14.0003 27.3332C12.9484 27.3332 12.0956 26.4804 12.0956 25.4284V15.9046H2.57176C1.51979 15.9046 0.666992 15.0518 0.666992 13.9998C0.666992 12.9479 1.51978 12.0951 2.57175 12.0951H12.0956V2.57127C12.0956 1.5193 12.9484 0.666504 14.0003 0.666504C15.0523 0.666504 15.9051 1.51929 15.9051 2.57127V12.0951H25.4289C26.4809 12.0951 27.3337 12.9479 27.3337 13.9998Z" fill="white"/>
</svg>
