<svg width="95" height="157" viewBox="0 0 95 157" fill="none" xmlns="http://www.w3.org/2000/svg">
<path fill-rule="evenodd" clip-rule="evenodd" d="M26.3119 81.5507C30.6534 79.4332 33.7156 73.9446 33.8613 65.8974C34.0101 57.6741 31.2164 46.0811 23.0593 30.1747L15.9407 33.8253C23.7836 49.1189 25.9783 59.3593 25.8626 65.7526C25.7454 72.2246 23.3632 74.1008 22.7768 74.3738L22.6393 74.4378L22.5071 74.512C9.08369 82.0475 0 96.4371 0 112.954C0 137.276 19.6951 157 44 157C68.3049 157 88 137.276 88 112.954C88 96.4371 78.9163 82.0475 65.4929 74.512L65.3607 74.4378L65.2232 74.3738C64.6368 74.1008 62.2546 72.2245 62.1374 65.7526C62.0217 59.3593 64.2164 49.1189 72.0593 33.8253L64.9407 30.1747C56.7836 46.0811 53.9899 57.6741 54.1387 65.8974C54.2844 73.9446 57.3466 79.4332 61.6881 81.5507C72.6276 87.743 80 99.488 80 112.954C80 132.866 63.8779 149 44 149C24.1221 149 8 132.866 8 112.954C8 99.488 15.3724 87.743 26.3119 81.5507Z" fill="black"/>
<path fill-rule="evenodd" clip-rule="evenodd" d="M75.3451 112.767C51.7799 121.183 23.8637 116.273 12.8066 112.818L15.1928 105.182C25.4691 108.393 51.4196 112.817 72.6544 105.233L75.3451 112.767Z" fill="black"/>
<path fill-rule="evenodd" clip-rule="evenodd" d="M49.1704 8H37.9745C36.7967 8 35.8739 9.01268 35.9831 10.1854L37.7122 28.7577C37.7603 29.2747 38.0076 29.7527 38.4018 30.0907L42.3041 33.4365C43.0439 34.0708 44.1331 34.0796 44.883 33.4574L48.969 30.0671C49.3842 29.7225 49.6426 29.2249 49.6855 28.687L51.1641 10.1591C51.2569 8.9955 50.3377 8 49.1704 8ZM37.9745 0C32.0855 0 27.4716 5.06338 28.0175 10.927L29.7466 29.4993C29.9873 32.0842 31.2237 34.4742 33.1946 36.1639L37.0969 39.5098C40.7958 42.6812 46.2418 42.7252 49.9914 39.614L54.0774 36.2237C56.1535 34.501 57.4456 32.0126 57.6602 29.3234L59.1387 10.7955C59.603 4.97752 55.0069 0 49.1704 0H37.9745Z" fill="black"/>
<path fill-rule="evenodd" clip-rule="evenodd" d="M74.9058 50.7559C70.9149 48.9931 66.4647 47.9352 62.5327 47.4726L63.4674 39.5274C68.0355 40.0648 73.2853 41.2944 78.1381 43.4379C82.9614 45.5683 87.6802 48.7309 90.7844 53.3032C93.9829 58.0142 95.2337 63.8893 93.5805 70.7856C91.965 77.5246 87.6212 85.0978 79.9857 93.6619L74.0144 88.3381C81.1789 80.3022 84.6101 73.8879 85.8009 68.9207C86.954 64.1107 86.0423 60.5608 84.1657 57.7968C82.195 54.8941 78.9263 52.5317 74.9058 50.7559Z" fill="black"/>
</svg>
