<svg width="122" height="154" viewBox="0 0 122 154" fill="none" xmlns="http://www.w3.org/2000/svg">
<path fill-rule="evenodd" clip-rule="evenodd" d="M116 31L122 0H0L7 31L0 154H122L116 31ZM113.6 146L107.963 30.4266L112.303 8H10.0079L15.0509 30.3333L8.46823 146H113.6Z" fill="black"/>
<path fill-rule="evenodd" clip-rule="evenodd" d="M54.1734 65.2343C54.1537 64.8608 54.1156 64.4552 54.0535 64.0266C53.7046 61.6162 52.7503 59.3996 51.2574 58.0328C49.7837 56.6835 47.4933 55.9351 45.0325 55.806C44.6177 55.7842 44.2251 55.7819 43.8622 55.7938C43.8823 56.1564 43.9191 56.5472 43.9773 56.9585C44.3225 59.3984 45.2695 61.614 46.7432 62.9633C48.2361 64.3301 50.528 65.0858 52.9599 65.2212C53.3922 65.2453 53.7996 65.2475 54.1734 65.2343ZM42.6915 67.3887C48.3999 72.6151 57.9275 71.5 59.3363 69.9612C60.7451 68.4225 61.0175 58.8338 55.3091 53.6074C49.6007 48.3811 40 49.576 38.6644 51.0349C37.3287 52.4937 36.9831 62.1623 42.6915 67.3887Z" fill="black"/>
<path fill-rule="evenodd" clip-rule="evenodd" d="M70.4716 65.2343C70.4913 64.8608 70.5295 64.4552 70.5915 64.0266C70.9404 61.6162 71.8947 59.3996 73.3876 58.0328C74.8613 56.6835 77.1517 55.9351 79.6126 55.806C80.0273 55.7842 80.4199 55.7819 80.7829 55.7938C80.7627 56.1564 80.7259 56.5472 80.6677 56.9585C80.3226 59.3984 79.3756 61.614 77.9018 62.9633C76.4089 64.3301 74.117 65.0858 71.6852 65.2212C71.2528 65.2453 70.8455 65.2475 70.4716 65.2343ZM81.9535 67.3887C76.2451 72.6151 66.7176 71.5 65.3087 69.9612C63.8999 68.4225 63.6275 58.8338 69.3359 53.6074C75.0443 48.3811 84.645 49.576 85.9807 51.0349C87.3163 52.4937 87.6619 62.1623 81.9535 67.3887Z" fill="black"/>
<path fill-rule="evenodd" clip-rule="evenodd" d="M54.1734 84.0901C54.1537 83.7165 54.1156 83.311 54.0535 82.8824C53.7046 80.4719 52.7503 78.2553 51.2574 76.8885C49.7837 75.5392 47.4933 74.7909 45.0325 74.6617C44.6177 74.6399 44.2251 74.6377 43.8622 74.6495C43.8823 75.0121 43.9191 75.403 43.9773 75.8142C44.3225 78.2542 45.2695 80.4698 46.7432 81.8191C48.2361 83.1859 50.528 83.9415 52.9599 84.0769C53.3922 84.101 53.7996 84.1033 54.1734 84.0901ZM42.6915 86.2445C48.3999 91.4708 57.9275 90.3558 59.3363 88.817C60.7451 87.2782 61.0175 77.6895 55.3091 72.4632C49.6007 67.2368 40 68.4318 38.6644 69.8906C37.3287 71.3495 36.9831 81.0181 42.6915 86.2445Z" fill="black"/>
<path fill-rule="evenodd" clip-rule="evenodd" d="M70.4716 84.0901C70.4913 83.7165 70.5295 83.311 70.5915 82.8824C70.9404 80.4719 71.8947 78.2553 73.3876 76.8885C74.8613 75.5392 77.1517 74.7909 79.6126 74.6617C80.0273 74.6399 80.4199 74.6377 80.7829 74.6495C80.7627 75.0121 80.7259 75.403 80.6677 75.8142C80.3226 78.2542 79.3756 80.4698 77.9018 81.8191C76.4089 83.1859 74.117 83.9415 71.6852 84.0769C71.2528 84.101 70.8455 84.1033 70.4716 84.0901ZM81.9535 86.2445C76.2451 91.4708 66.7176 90.3558 65.3087 88.817C63.8999 87.2782 63.6275 77.6895 69.3359 72.4632C75.0443 67.2368 84.645 68.4318 85.9807 69.8906C87.3163 71.3495 87.6619 81.0181 81.9535 86.2445Z" fill="black"/>
<path fill-rule="evenodd" clip-rule="evenodd" d="M54.1734 102.09C54.1537 101.717 54.1156 101.311 54.0535 100.882C53.7046 98.4719 52.7503 96.2553 51.2574 94.8885C49.7837 93.5392 47.4933 92.7909 45.0325 92.6617C44.6177 92.6399 44.2251 92.6377 43.8622 92.6495C43.8823 93.0121 43.9191 93.403 43.9773 93.8142C44.3225 96.2542 45.2695 98.4698 46.7432 99.8191C48.2361 101.186 50.528 101.942 52.9599 102.077C53.3922 102.101 53.7996 102.103 54.1734 102.09ZM42.6915 104.244C48.3999 109.471 57.9275 108.356 59.3363 106.817C60.7451 105.278 61.0175 95.6895 55.3091 90.4632C49.6007 85.2368 40 86.4318 38.6644 87.8906C37.3287 89.3495 36.9831 99.0181 42.6915 104.244Z" fill="black"/>
<path fill-rule="evenodd" clip-rule="evenodd" d="M70.4716 102.09C70.4913 101.717 70.5295 101.311 70.5915 100.882C70.9404 98.4719 71.8947 96.2553 73.3876 94.8885C74.8613 93.5392 77.1517 92.7909 79.6126 92.6617C80.0273 92.6399 80.4199 92.6377 80.7829 92.6495C80.7627 93.0121 80.7259 93.403 80.6677 93.8142C80.3226 96.2542 79.3756 98.4698 77.9018 99.8191C76.4089 101.186 74.117 101.942 71.6852 102.077C71.2528 102.101 70.8455 102.103 70.4716 102.09ZM81.9535 104.244C76.2451 109.471 66.7176 108.356 65.3087 106.817C63.8999 105.278 63.6275 95.6895 69.3359 90.4632C75.0443 85.2368 84.645 86.4318 85.9807 87.8906C87.3163 89.3495 87.6619 99.0181 81.9535 104.244Z" fill="black"/>
<path fill-rule="evenodd" clip-rule="evenodd" d="M62.3426 52.0275C62.6048 51.7607 62.8782 51.4587 63.1524 51.1235C64.6947 49.2385 65.6851 47.0377 65.6851 45.0137C65.6851 43.0156 64.6904 40.8209 63.1239 38.9187C62.8599 38.5981 62.5964 38.307 62.3426 38.0473C62.0888 38.307 61.8253 38.5981 61.5613 38.9187C59.9948 40.8209 59.0001 43.0156 59.0001 45.0137C59.0001 47.0377 59.9905 49.2385 61.5328 51.1235C61.807 51.4587 62.0804 51.7607 62.3426 52.0275ZM53.0001 45.0137C53.0001 52.7533 60.2563 59.0274 62.3426 59.0274C64.4289 59.0274 71.6851 52.7533 71.6851 45.0137C71.6851 37.2741 64.3205 31 62.3426 31C60.3647 31 53.0001 37.2741 53.0001 45.0137Z" fill="black"/>
<path d="M59 56H65V129H59V56Z" fill="black"/>
</svg>
