<svg width="150" height="151" viewBox="0 0 150 151" fill="none" xmlns="http://www.w3.org/2000/svg">
<path fill-rule="evenodd" clip-rule="evenodd" d="M61.4995 143C105.682 143 141.5 107.183 141.5 63C141.5 43.6706 134.652 25.9517 123.238 12.1199L11.614 125.546C25.2958 136.475 42.6295 143 61.4995 143ZM5.97532 131.276C3.9032 129.588 1.90935 127.809 5.32193e-05 125.943C-0.000131137 125.943 0.000237574 125.943 5.32193e-05 125.943L123.449 0.500534C125.345 2.38032 127.157 4.34528 128.877 6.39019C141.747 21.6921 149.5 41.4406 149.5 63C149.5 111.601 110.101 151 61.4995 151C40.4465 151 21.1203 143.607 5.97532 131.276Z" fill="black"/>
<path fill-rule="evenodd" clip-rule="evenodd" d="M61.5095 128C97.3922 128 126.5 98.8686 126.5 62.9103C126.5 47.7271 121.316 33.7681 112.616 22.6951L22.1702 114.726C33.0942 123.06 46.7208 128 61.5095 128ZM16.5237 120.472C14.4201 118.821 12.4093 117.057 10.5004 115.189C10.5001 115.189 10.4998 115.188 10.4995 115.188L112.892 11C114.789 12.8821 116.582 14.8677 118.264 16.9475C128.417 29.5034 134.5 45.4956 134.5 62.9103C134.5 103.277 101.821 136 61.5095 136C44.5385 136 28.9202 130.2 16.5237 120.472Z" fill="black"/>
<path fill-rule="evenodd" clip-rule="evenodd" d="M72.5218 67.5H114.5V59.5H68.4995V63.348L68.3725 63.2168L62.6266 68.7832L62.8366 69H58.4995V116.5H66.4995V72.7811L93.6265 100.783L99.3725 95.2168L72.5218 67.5Z" fill="black"/>
</svg>
