<svg width="219" height="142" viewBox="0 0 219 142" fill="none" xmlns="http://www.w3.org/2000/svg">
<path fill-rule="evenodd" clip-rule="evenodd" d="M69.9191 31.9314C70.0921 32.0639 70.2624 32.1944 70.43 32.3226C71.5115 33.1496 73.6456 34.1046 76.8584 35.0296C79.9615 35.9229 83.685 36.6831 87.6197 37.3127C95.3941 38.5568 103.688 39.2435 109 39.4956C114.313 39.2435 122.606 38.5568 130.381 37.3128C134.315 36.6831 138.039 35.9229 141.142 35.0296C144.355 34.1046 146.489 33.1496 147.57 32.3226C147.738 32.1944 147.908 32.0639 148.081 31.9314C152.145 28.8176 157.685 24.5738 164.146 22.718C171.302 20.6624 179.292 21.5842 187.55 28.4184C191.745 31.8896 194.424 36.0526 195.257 40.6913C196.09 45.3276 194.991 49.957 192.519 54.2011C187.657 62.5464 177.27 69.8677 163.328 74.7733C141.301 82.5234 118.221 83.5001 109 83.0062C99.7799 83.5001 76.6993 82.5234 54.6726 74.7733C40.7305 69.8677 30.3435 62.5464 25.4815 54.2011C23.0089 49.957 21.9102 45.3276 22.7429 40.6913C23.576 36.0526 26.2557 31.8896 30.4499 28.4184C38.708 21.5842 46.6983 20.6624 53.8545 22.718C60.3155 24.5738 65.8547 28.8176 69.9191 31.9314ZM51.6459 30.407C47.0522 29.0876 41.7924 29.4158 35.5505 34.5816C32.4948 37.1105 31.0494 39.6974 30.6169 42.1055C30.184 44.5161 30.679 47.2305 32.3939 50.1739C35.9069 56.2036 44.2699 62.6323 57.3278 67.2268C78.3153 74.6112 100.498 75.4839 108.77 75.0066L109 74.9934L109.231 75.0066C117.503 75.4839 139.685 74.6112 160.672 67.2268C173.73 62.6323 182.093 56.2036 185.606 50.1739C187.321 47.2305 187.816 44.5161 187.383 42.1055C186.951 39.6974 185.505 37.1105 182.45 34.5816C176.208 29.4158 170.948 29.0876 166.354 30.407C161.374 31.8376 156.885 35.2704 152.518 38.6098L152.43 38.6774C150.111 40.4504 146.775 41.7329 143.355 42.7173C139.826 43.7333 135.756 44.5544 131.645 45.2122C123.418 46.5287 114.714 47.2405 109.185 47.4957L109 47.5043L108.816 47.4957C103.286 47.2405 94.5824 46.5287 86.3557 45.2122C82.2446 44.5544 78.1743 43.7333 74.6451 42.7173C71.2257 41.7329 67.8889 40.4504 65.5704 38.6774L65.4819 38.6097C61.1151 35.2703 56.6263 31.8376 51.6459 30.407Z" fill="black"/>
<path fill-rule="evenodd" clip-rule="evenodd" d="M196.264 2.64161L183.609 35.4032L218.136 30.12L196.264 2.64161ZM198.697 18.5441L196.046 25.407L203.279 24.3002L198.697 18.5441Z" fill="black"/>
<path fill-rule="evenodd" clip-rule="evenodd" d="M21.8728 2.64161L34.528 35.4032L0.000227665 30.12L21.8728 2.64161ZM19.4396 18.5441L22.0905 25.407L14.8577 24.3002L19.4396 18.5441Z" fill="black"/>
<path fill-rule="evenodd" clip-rule="evenodd" d="M86.0332 78.4858L93.9668 79.5142L90.7881 104.036L108.614 115.784L128.694 103.9L125.533 79.5142L133.467 78.4858L137.306 108.1L112.5 122.781V142H104.5V122.654L82.2119 107.964L86.0332 78.4858Z" fill="black"/>
</svg>
