<svg width="123" height="153" viewBox="0 0 123 153" fill="none" xmlns="http://www.w3.org/2000/svg">
<path fill-rule="evenodd" clip-rule="evenodd" d="M115 32L123 0H0L6.5 32L0 153H123L115 32ZM114.454 145L106.935 31.2764L112.754 8H9.78837L14.5433 31.4088L8.44129 145H114.454Z" fill="black"/>
<path d="M14 29H99V37H14V29Z" fill="black"/>
<path fill-rule="evenodd" clip-rule="evenodd" d="M47.0017 68.9548L41.2482 53.3866L48.7521 50.6134L57.2521 73.6134L52.384 75.4125L47.8203 80.4696L27.3203 61.9696L32.68 56.0304L47.0017 68.9548Z" fill="black"/>
<path fill-rule="evenodd" clip-rule="evenodd" d="M71.2428 124.162L63.7993 106.018L71.2007 102.982L78.6441 121.125C78.8508 121.629 79.1368 122.097 79.4913 122.51L80.4716 123.654C80.5797 123.78 80.7269 123.866 80.8898 123.899C81.2065 123.962 81.5278 123.814 81.6846 123.531L82.5034 122.057L89.4966 125.943L88.6779 127.416C86.8315 130.74 83.0489 132.489 79.3209 131.743C77.4035 131.36 75.67 130.345 74.3975 128.86L73.4172 127.716C72.5075 126.655 71.7734 125.455 71.2428 124.162Z" fill="black"/>
<path fill-rule="evenodd" clip-rule="evenodd" d="M87.1917 114.381L70.0573 101.168L74.9427 94.8325L92.0771 108.046C92.5141 108.383 93.0038 108.646 93.5263 108.823L94.9221 109.297C95.0794 109.351 95.25 109.35 95.4068 109.295C95.7115 109.188 95.9122 108.896 95.9033 108.574L95.8566 106.888L103.854 106.667L103.9 108.352C104.005 112.153 101.642 115.585 98.0548 116.844C96.2097 117.491 94.2009 117.501 92.3494 116.872L90.9536 116.398C89.5971 115.938 88.3261 115.256 87.1917 114.381Z" fill="black"/>
<path fill-rule="evenodd" clip-rule="evenodd" d="M60.0004 76.163L56.9962 79.6035C55.8566 80.9086 54.4479 81.9515 52.8669 82.6604L48.5021 84.6175L50.9747 88.9394C51.8161 90.41 52.3365 92.042 52.5017 93.7281L52.9744 98.5513L57.396 97.5682C59.1113 97.1868 60.8895 97.1868 62.6048 97.5682L67.0264 98.5513L67.499 93.7281C67.6643 92.042 68.1847 90.41 69.026 88.9394L71.4987 84.6175L67.1339 82.6604C65.5529 81.9515 64.1442 80.9086 63.0046 79.6035L60.0004 76.163ZM63.0134 67.4506C61.4194 65.6252 58.5813 65.6252 56.9874 67.4506L50.9702 74.3417C50.5903 74.7767 50.1207 75.1243 49.5938 75.3606L41.202 79.1234C39.0448 80.0907 38.1926 82.7077 39.3666 84.7597L44.0309 92.9122C44.3113 93.4024 44.4848 93.9464 44.5399 94.5084L45.453 103.826C45.6872 106.216 47.9586 107.862 50.3021 107.341L59.1322 105.378C59.704 105.25 60.2967 105.25 60.8685 105.378L69.6987 107.341C72.0422 107.862 74.3136 106.216 74.5477 103.826L75.4609 94.5084C75.516 93.9464 75.6894 93.4024 75.9699 92.9122L80.6341 84.7597C81.8081 82.7077 80.9559 80.0907 78.7988 79.1234L70.407 75.3606C69.88 75.1243 69.4104 74.7767 69.0306 74.3417L63.0134 67.4506Z" fill="black"/>
</svg>
