<svg width="132" height="156" viewBox="0 0 132 156" fill="none" xmlns="http://www.w3.org/2000/svg">
<path fill-rule="evenodd" clip-rule="evenodd" d="M125.5 26L132 0H0L5.5 26V130L0 156H132L125.5 130V26ZM121.754 148L117.5 130.985V25.0152L121.754 8H9.86934L13.5 25.1631V130.837L9.86934 148H121.754Z" fill="black"/>
<path fill-rule="evenodd" clip-rule="evenodd" d="M35.4845 40.4582L33.545 41.0947L46.3446 80.0949L48.2842 79.4583L35.4845 40.4582ZM23.4492 35.9883L41.2381 90.1906L58.3799 84.5648L40.591 30.3624L23.4492 35.9883Z" fill="black"/>
<path fill-rule="evenodd" clip-rule="evenodd" d="M69 55H67V98H69V55ZM59 47V106H77V47H59Z" fill="black"/>
<path fill-rule="evenodd" clip-rule="evenodd" d="M93.5554 67.6822L91.5603 67.5418L88.542 110.436L90.537 110.576L93.5554 67.6822ZM84.1416 59L80.0001 117.854L97.9557 119.118L102.097 60.2635L84.1416 59Z" fill="black"/>
</svg>
