<svg width="158" height="156" viewBox="0 0 158 156" fill="none" xmlns="http://www.w3.org/2000/svg">
<path fill-rule="evenodd" clip-rule="evenodd" d="M89 24.551C89 15.4008 96.3967 8 105.5 8C114.603 8 122 15.4008 122 24.551C122 27.8045 121.068 30.827 119.46 33.3791L122.626 35.374L124.621 38.54C127.173 36.9318 130.195 36 133.449 36C142.599 36 150 43.3967 150 52.5C150 61.6033 142.599 69 133.449 69C128.908 69 124.802 67.1822 121.809 64.2299L116.191 69.9256C120.622 74.2964 126.724 77 133.449 77C146.999 77 158 66.0403 158 52.5C158 38.9597 146.999 28 133.449 28C132.181 28 130.936 28.0961 129.718 28.2815C129.904 27.0644 130 25.8185 130 24.551C130 11.0012 119.04 0 105.5 0C91.9597 0 81 11.0012 81 24.551C81 31.2759 83.7036 37.3775 88.0744 41.8089L93.7701 36.1911C90.8178 33.1979 89 29.0921 89 24.551Z" fill="black"/>
<path fill-rule="evenodd" clip-rule="evenodd" d="M69 131.449C69 140.599 61.6033 148 52.5 148C43.3967 148 36 140.599 36 131.449C36 128.195 36.9318 125.173 38.54 122.621L35.374 120.626L33.3791 117.46C30.827 119.068 27.8045 120 24.551 120C15.4008 120 8 112.603 8 103.5C8 94.3967 15.4008 87 24.551 87C29.0921 87 33.1979 88.8178 36.1911 91.7701L41.8089 86.0744C37.3775 81.7036 31.2759 79 24.551 79C11.0012 79 0 89.9597 0 103.5C0 117.04 11.0012 128 24.551 128C25.8185 128 27.0644 127.904 28.2815 127.718C28.0961 128.936 28 130.181 28 131.449C28 144.999 38.9597 156 52.5 156C66.0403 156 77 144.999 77 131.449C77 124.724 74.2964 118.622 69.9256 114.191L64.2299 119.809C67.1822 122.802 69 126.908 69 131.449Z" fill="black"/>
<rect x="33.4551" y="89.5438" width="80.5792" height="8" transform="rotate(-44.4454 33.4551 89.5438)" fill="black"/>
<rect x="61" y="117.424" width="80.5792" height="8" transform="rotate(-44.4454 61 117.424)" fill="black"/>
</svg>
