<svg width="109" height="150" viewBox="0 0 109 150" fill="none" xmlns="http://www.w3.org/2000/svg">
<path fill-rule="evenodd" clip-rule="evenodd" d="M61.5415 32.8061C58.6615 31.4981 54.7727 30.7955 49.5067 31.4678C39.8376 32.7021 31.4541 41.4804 28.4242 52.6929C25.4524 63.6902 27.9592 75.9499 38.8318 83.7498C49.111 91.124 60.587 91.6245 71.1628 88.821C81.8269 85.9941 91.2438 79.8689 96.7335 74.6112L102.267 80.3888C95.9233 86.4644 85.3401 93.3392 73.2126 96.5539C60.9968 99.7921 46.8894 99.3759 34.1686 90.2501C20.0412 80.1153 17.0479 64.125 20.7012 50.606C24.2962 37.3022 34.6627 25.2978 48.4937 23.5322C54.9777 22.7044 60.4013 23.5019 64.8495 25.5221C69.2987 27.5427 72.5228 30.6737 74.7824 34.1187C79.1961 40.8478 80.073 48.9693 79.4651 53.5286C78.9134 57.6663 77.4985 62.7288 74.1689 66.8327C70.6998 71.1086 65.4201 74 58.0002 74C53.1947 74 47.1926 72.0761 42.7695 68.5732C38.1961 64.9514 34.7604 59.0703 37.2055 51.7351C39.4946 44.8678 45.5456 40.7802 51.6235 40.2053C57.8783 39.6136 64.4201 42.77 66.8119 50.2872L59.1885 52.7128C58.0803 49.23 55.372 47.8864 52.3769 48.1697C49.2048 48.4698 46.0058 50.6322 44.7949 54.2649C43.74 57.4297 44.8911 60.0486 47.7362 62.3017C50.7315 64.6739 54.9794 66 58.0002 66C63.0802 66 66.0505 64.1414 67.9564 61.7923C70.0019 59.2712 71.087 55.8336 71.5353 52.4713C71.9274 49.5307 71.3043 43.4022 68.093 38.5063C66.5401 36.1388 64.4204 34.1135 61.5415 32.8061Z" fill="black"/>
<path fill-rule="evenodd" clip-rule="evenodd" d="M54.5 101C80.1812 101 101 80.1812 101 54.5C101 28.8188 80.1812 8 54.5 8C28.8188 8 8 28.8188 8 54.5C8 80.1812 28.8188 101 54.5 101ZM54.5 109C84.5995 109 109 84.5995 109 54.5C109 24.4005 84.5995 0 54.5 0C24.4005 0 0 24.4005 0 54.5C0 84.5995 24.4005 109 54.5 109Z" fill="black"/>
<path fill-rule="evenodd" clip-rule="evenodd" d="M50.5 150V105.5H58.5V150H50.5Z" fill="black"/>
</svg>
