<svg width="190" height="134" viewBox="0 0 190 134" fill="none" xmlns="http://www.w3.org/2000/svg">
<path fill-rule="evenodd" clip-rule="evenodd" d="M45.5 35C51.8513 35 57 29.8513 57 23.5C57 17.1487 51.8513 12 45.5 12C39.1487 12 34 17.1487 34 23.5C34 29.8513 39.1487 35 45.5 35ZM45.5 43C56.2696 43 65 34.2696 65 23.5C65 12.7304 56.2696 4 45.5 4C34.7304 4 26 12.7304 26 23.5C26 34.2696 34.7304 43 45.5 43Z" fill="black"/>
<path fill-rule="evenodd" clip-rule="evenodd" d="M19.5 76C25.8513 76 31 70.8513 31 64.5C31 58.1487 25.8513 53 19.5 53C13.1487 53 8 58.1487 8 64.5C8 70.8513 13.1487 76 19.5 76ZM19.5 84C30.2696 84 39 75.2696 39 64.5C39 53.7304 30.2696 45 19.5 45C8.73045 45 0 53.7304 0 64.5C0 75.2696 8.73045 84 19.5 84Z" fill="black"/>
<path fill-rule="evenodd" clip-rule="evenodd" d="M70.5 76C76.8513 76 82 70.8513 82 64.5C82 58.1487 76.8513 53 70.5 53C64.1487 53 59 58.1487 59 64.5C59 70.8513 64.1487 76 70.5 76ZM70.5 84C81.2696 84 90 75.2696 90 64.5C90 53.7304 81.2696 45 70.5 45C59.7304 45 51 53.7304 51 64.5C51 75.2696 59.7304 84 70.5 84Z" fill="black"/>
<path fill-rule="evenodd" clip-rule="evenodd" d="M179.951 8.64608C178.921 8.35189 177.82 8.75947 177.229 9.65303L126.337 86.7045L119.662 82.2955L170.554 5.24399C173.069 1.43697 177.762 -0.299515 182.149 0.953893L182.287 0.993292C184.748 1.69653 186.85 3.30895 188.167 5.50397C189.98 8.52635 190.085 12.2759 188.444 15.395L145.039 97.863L137.96 94.137L181.364 11.669C181.704 11.0229 181.683 10.2461 181.307 9.61994C181.034 9.16521 180.599 8.83117 180.089 8.68548L179.951 8.64608Z" fill="black"/>
<path fill-rule="evenodd" clip-rule="evenodd" d="M124.067 119.588C125.167 118.453 126 116.957 126 113.101C126 106.771 121.055 102 115.393 102C113.714 102 112.898 102.265 112.451 102.471C111.984 102.686 111.379 103.087 110.42 104.118C109.396 105.22 108.338 106.619 106.706 108.776C106.653 108.846 106.6 108.916 106.546 108.987C104.98 111.057 103.071 113.559 100.649 116.338C98.9421 118.764 96.6256 120.689 94.8184 122.06C94.2221 122.512 93.5959 122.965 92.9684 123.407C94.2249 123.777 95.5572 124.129 96.9315 124.45C100.295 125.234 103.706 125.778 106.688 125.946C109.842 126.123 111.785 125.833 112.648 125.518C119.352 123.07 122.482 121.225 124.067 119.588ZM94.3042 111.44C92.6734 113.988 89.0333 116.441 85.7123 118.68C81.4552 121.55 77.7225 124.066 79.4183 125.973C82.8211 129.801 105.882 136.505 115.393 133.033C129.038 128.05 134 123.65 134 113.101C134 102.552 125.669 94 115.393 94C107.848 94 105.141 97.5807 100.472 103.756C98.781 105.993 96.8328 108.57 94.3042 111.44Z" fill="black"/>
</svg>
