<svg width="200" height="111" viewBox="0 0 200 111" fill="none" xmlns="http://www.w3.org/2000/svg">
<path fill-rule="evenodd" clip-rule="evenodd" d="M95.5005 0L147.449 30.4699L194.902 1.2315L199.098 8.0424L151.5 37.3707V69.137H143.5V37.4281L95.4994 9.2739L68.5228 25.0877L64.4771 18.1862L95.5005 0Z" fill="black"/>
<path fill-rule="evenodd" clip-rule="evenodd" d="M0 47.637V22.137H8V30.137H18.5V22.137H26.5V47.637H18.5V38.137H8V47.637H0Z" fill="black"/>
<path fill-rule="evenodd" clip-rule="evenodd" d="M44 42.137C47.5899 42.137 50.5 39.2268 50.5 35.637C50.5 32.0471 47.5899 29.137 44 29.137C40.4101 29.137 37.5 32.0471 37.5 35.637C37.5 39.2268 40.4101 42.137 44 42.137ZM44 50.137C52.0081 50.137 58.5 43.6451 58.5 35.637C58.5 27.6288 52.0081 21.137 44 21.137C35.9919 21.137 29.5 27.6288 29.5 35.637C29.5 43.6451 35.9919 50.137 44 50.137Z" fill="black"/>
<path fill-rule="evenodd" clip-rule="evenodd" d="M192 107.637V82.137H184V90.137H173.5V82.137H165.5V107.637H173.5V98.137H184V107.637H192Z" fill="black"/>
<path fill-rule="evenodd" clip-rule="evenodd" d="M148 102.137C144.41 102.137 141.5 99.2268 141.5 95.637C141.5 92.0471 144.41 89.137 148 89.137C151.59 89.137 154.5 92.0471 154.5 95.637C154.5 99.2268 151.59 102.137 148 102.137ZM148 110.137C139.992 110.137 133.5 103.645 133.5 95.637C133.5 87.6288 139.992 81.137 148 81.137C156.008 81.137 162.5 87.6288 162.5 95.637C162.5 103.645 156.008 110.137 148 110.137Z" fill="black"/>
</svg>
