<svg width="126" height="157" viewBox="0 0 126 157" fill="none" xmlns="http://www.w3.org/2000/svg">
<path fill-rule="evenodd" clip-rule="evenodd" d="M124 32L126 0H0V32L6.5 37L0 44V157H126L124 44L117.5 37L124 32ZM116.242 27.8745L117.484 8H8V28.0608L18.3354 36.0111L8 47.1415V149H117.857L116.055 47.2012L105.665 36.0111L116.242 27.8745Z" fill="black"/>
<path fill-rule="evenodd" clip-rule="evenodd" d="M42.9903 67.5168C44.7705 68.2446 45.7273 68.2536 46.1847 68.1231C47.6925 67.6928 49.3706 67.2027 51.083 66.6961C58.5349 64.4912 66.4651 64.4912 73.917 66.6961C75.6293 67.2027 77.3075 67.6928 78.8152 68.1231C79.2727 68.2536 80.2295 68.2446 82.0096 67.5168C83.733 66.8122 85.6081 65.7014 87.7056 64.4258C87.8423 64.3427 87.9806 64.2584 88.1205 64.1732C89.9665 63.0484 92.0716 61.7657 94.0021 60.9622C95.8412 60.1967 99.1767 59.1419 102.112 61.1838C103.468 62.1266 104.144 63.4715 104.49 64.5381C104.843 65.6282 104.973 66.7882 104.996 67.8721C105.042 70.0479 104.669 72.572 104.047 75.0968C102.907 79.7292 100.754 85.0706 97.8679 89.295C97.7108 93.1146 96.8727 98.4185 94.8046 103.578C92.4886 109.357 88.4293 115.423 81.5575 118.61C77.934 120.29 74.806 121.555 72.1509 122.495C65.8899 124.713 59.1101 124.713 52.849 122.495C50.194 121.555 47.0659 120.29 43.4424 118.61C36.5707 115.423 32.5114 109.357 30.1954 103.578C28.1272 98.4185 27.2892 93.1146 27.1321 89.295C24.2459 85.0706 22.0931 79.7292 20.9528 75.0968C20.3313 72.572 19.9575 70.0479 20.0039 67.8721C20.0269 66.7882 20.1566 65.6282 20.5102 64.5381C20.8562 63.4715 21.5325 62.1266 22.8878 61.1838C25.8233 59.1419 29.1588 60.1967 30.9978 60.9622C32.9284 61.7657 35.0335 63.0484 36.8795 64.1732C37.0193 64.2584 37.1577 64.3427 37.2943 64.4258C39.3918 65.7014 41.2669 66.8122 42.9903 67.5168ZM26.7918 68.0007C26.7914 68.0001 26.8002 67.9999 26.8192 68.0015C26.8017 68.0021 26.7921 68.0013 26.7918 68.0007ZM28.0009 68.3804C29.3292 68.9448 30.9235 69.9145 32.9761 71.1629C33.0296 71.1954 33.0834 71.2282 33.1375 71.2611C35.1521 72.4862 37.5575 73.9385 39.963 74.9219C42.3117 75.8821 45.3321 76.6857 48.38 75.816C49.9204 75.3764 51.6249 74.8786 53.3527 74.3673C59.3232 72.6008 65.6767 72.6008 71.6472 74.3673C73.3751 74.8786 75.0795 75.3764 76.62 75.816C79.6678 76.6857 82.6882 75.8821 85.0369 74.9219C87.4424 73.9385 89.8479 72.4862 91.8624 71.2611L92.0238 71.1629C94.0764 69.9145 95.6707 68.9448 96.999 68.3804C96.9828 69.5911 96.7567 71.244 96.279 73.1846C95.2282 77.4534 93.1735 82.2709 90.6961 85.5736L89.8959 86.6404L89.8959 87.9739C89.8959 90.9566 89.2663 95.8929 87.3789 100.602C85.4886 105.318 82.5373 109.337 78.1921 111.352C74.7705 112.939 71.8746 114.106 69.48 114.954C64.947 116.56 60.053 116.56 55.5199 114.954C53.1254 114.106 50.2294 112.939 46.8079 111.352C42.4627 109.337 39.5114 105.318 37.6211 100.602C35.7336 95.8929 35.104 90.9566 35.104 87.9739L35.104 86.6404L34.3039 85.5736C31.8265 82.2709 29.7718 77.4534 28.721 73.1846C28.2433 71.244 28.0171 69.5911 28.0009 68.3804ZM98.2082 68.0007C98.2078 68.0013 98.1984 68.0021 98.1808 68.0015C98.1998 67.9999 98.2085 68.0001 98.2082 68.0007ZM96.8778 66.9998C96.8745 66.9916 96.873 66.9871 96.8731 66.987C96.8732 66.9868 96.8748 66.9909 96.8778 66.9998ZM28.1221 66.9998C28.1251 66.9909 28.1268 66.9868 28.1269 66.987C28.127 66.9871 28.1255 66.9916 28.1221 66.9998Z" fill="black"/>
</svg>
