<svg width="65" height="153" viewBox="0 0 65 153" fill="none" xmlns="http://www.w3.org/2000/svg">
<path fill-rule="evenodd" clip-rule="evenodd" d="M46.3869 22.2903H19.3546V44.4772C19.3546 46.8958 18.5447 49.2448 17.0541 51.1494C10.1879 59.9229 7.07307 71.0572 8.39006 82.12L11.9487 112.012C12.7553 118.788 14.9156 125.333 18.3012 131.258L22.2715 138.206C23.0362 139.544 24.0621 140.715 25.2881 141.649L25.5515 141.85C29.6829 144.998 35.4455 144.857 39.4184 141.511C40.3402 140.735 41.1294 139.814 41.7549 138.783L45.5613 132.514C49.7001 125.697 52.3294 118.073 53.2722 110.154L56.6596 81.6993C57.958 70.793 55.0458 59.8023 48.5175 50.9698C47.1337 49.0976 46.3869 46.8309 46.3869 44.5027V22.2903ZM11.3546 14.2903V44.4772C11.3546 45.1086 11.1432 45.7218 10.7541 46.219C2.58513 56.6571 -1.12071 69.904 0.446156 83.0657L4.00476 112.958C4.93816 120.798 7.43781 128.371 11.3553 135.227L15.3255 142.175C16.622 144.444 18.3612 146.429 20.4398 148.013L20.7032 148.213C27.8144 153.631 37.7331 153.389 44.5715 147.631C46.1582 146.294 47.5166 144.709 48.5932 142.935L52.3996 136.666C57.1318 128.872 60.1382 120.154 61.2161 111.099L64.6035 82.645C66.1427 69.7154 62.6904 56.6857 54.9509 46.2147C54.5846 45.7191 54.3869 45.119 54.3869 44.5027V14.2903H11.3546Z" fill="black"/>
<path d="M11 0H54V8H11V0Z" fill="black"/>
</svg>
