<svg width="185" height="104" viewBox="0 0 185 104" fill="none" xmlns="http://www.w3.org/2000/svg">
<path fill-rule="evenodd" clip-rule="evenodd" d="M117.107 6.5C118.651 7.35707 120.148 8.2905 121.591 9.2952C135.083 18.6892 143.913 34.3134 143.913 52C143.913 80.7188 120.631 104 91.9126 104C74.4489 104 58.996 95.3912 49.566 82.1858C48.6028 80.8371 47.7025 79.4404 46.8693 78C42.4448 70.3515 39.9126 61.4715 39.9126 52C39.9126 23.2812 63.1938 0 91.9126 0C101.053 0 109.643 2.35844 117.107 6.5ZM54.0018 74.3493C53.932 74.2313 53.8628 74.1129 53.7941 73.9942C50.0551 67.5305 47.9126 60.0276 47.9126 52C47.9126 27.6995 67.6121 8 91.9126 8C99.6607 8 106.919 9.99577 113.225 13.4952C113.498 13.6466 113.769 13.8007 114.038 13.9576C114.951 25.6162 113.191 40.0573 105.726 51.8047C97.6087 64.5797 82.2505 74.9293 54.0018 74.3493ZM60.0111 82.305C68.0337 90.7483 79.3626 96 91.9126 96C116.213 96 135.913 76.3005 135.913 52C135.913 39.4686 130.676 28.1539 122.255 20.1337C122.184 31.6634 119.654 44.8021 112.478 56.0952C103.265 70.5951 86.8352 81.3752 60.0111 82.305Z" fill="black"/>
<path fill-rule="evenodd" clip-rule="evenodd" d="M184.326 11.6006L175.997 50.0386L184.008 90.7057L137.963 64.9923L141.863 58.0077L172.818 75.2943L167.828 49.9614L172.5 28.3994L142.029 47.3945L137.797 40.6055L184.326 11.6006Z" fill="black"/>
<path fill-rule="evenodd" clip-rule="evenodd" d="M9.91821e-05 11.6006L8.32832 50.0386L0.318123 90.7057L46.363 64.9923L42.4625 58.0077L11.5074 75.2943L16.4972 49.9614L11.8255 28.3994L42.2967 47.3945L46.5288 40.6055L9.91821e-05 11.6006Z" fill="black"/>
</svg>
