<svg width="171" height="156" viewBox="0 0 171 156" fill="none" xmlns="http://www.w3.org/2000/svg">
<path fill-rule="evenodd" clip-rule="evenodd" d="M86.5 33C93.4036 33 99 27.4036 99 20.5C99 13.5964 93.4036 8 86.5 8C79.5964 8 74 13.5964 74 20.5C74 27.4036 79.5964 33 86.5 33ZM86.5 41C97.8218 41 107 31.8218 107 20.5C107 9.17816 97.8218 0 86.5 0C75.1782 0 66 9.17816 66 20.5C66 31.8218 75.1782 41 86.5 41Z" fill="black"/>
<path fill-rule="evenodd" clip-rule="evenodd" d="M86.5 148C93.4036 148 99 142.404 99 135.5C99 128.596 93.4036 123 86.5 123C79.5964 123 74 128.596 74 135.5C74 142.404 79.5964 148 86.5 148ZM86.5 156C97.8218 156 107 146.822 107 135.5C107 124.178 97.8218 115 86.5 115C75.1782 115 66 124.178 66 135.5C66 146.822 75.1782 156 86.5 156Z" fill="black"/>
<path fill-rule="evenodd" clip-rule="evenodd" d="M150.5 148C157.404 148 163 142.404 163 135.5C163 128.596 157.404 123 150.5 123C143.596 123 138 128.596 138 135.5C138 142.404 143.596 148 150.5 148ZM150.5 156C161.822 156 171 146.822 171 135.5C171 124.178 161.822 115 150.5 115C139.178 115 130 124.178 130 135.5C130 146.822 139.178 156 150.5 156Z" fill="black"/>
<path fill-rule="evenodd" clip-rule="evenodd" d="M20.5 148C27.4036 148 33 142.404 33 135.5C33 128.596 27.4036 123 20.5 123C13.5964 123 8 128.596 8 135.5C8 142.404 13.5964 148 20.5 148ZM20.5 156C31.8218 156 41 146.822 41 135.5C41 124.178 31.8218 115 20.5 115C9.17816 115 0 124.178 0 135.5C0 146.822 9.17816 156 20.5 156Z" fill="black"/>
<path fill-rule="evenodd" clip-rule="evenodd" d="M54.5 90C61.4036 90 67 84.4036 67 77.5C67 70.5964 61.4036 65 54.5 65C47.5964 65 42 70.5964 42 77.5C42 84.4036 47.5964 90 54.5 90ZM54.5 98C65.8218 98 75 88.8218 75 77.5C75 66.1782 65.8218 57 54.5 57C43.1782 57 34 66.1782 34 77.5C34 88.8218 43.1782 98 54.5 98Z" fill="black"/>
<path fill-rule="evenodd" clip-rule="evenodd" d="M118.5 90C125.404 90 131 84.4036 131 77.5C131 70.5964 125.404 65 118.5 65C111.596 65 106 70.5964 106 77.5C106 84.4036 111.596 90 118.5 90ZM118.5 98C129.822 98 139 88.8218 139 77.5C139 66.1782 129.822 57 118.5 57C107.178 57 98 66.1782 98 77.5C98 88.8218 107.178 98 118.5 98Z" fill="black"/>
</svg>
