<svg width="130" height="150" viewBox="0 0 130 150" fill="none" xmlns="http://www.w3.org/2000/svg">
<path d="M88 38.5C86 33.7 73.8333 24.8333 68 21C70 18 74.5 11.2 76.5 8C76.5 8 89.8333 25.8333 96 35C95.3333 35.3333 92.8 36.5 88 38.5Z" stroke="black" stroke-width="8"/>
<path d="M61.5 128.5C39.6182 136.457 18.286 131.453 6.21565 126.185C5.15583 125.722 4.09763 127.16 4.94112 127.951C10.7167 133.367 18.724 139.923 23.5 142C35 147 65.5 146 86.5 139C103.3 133.4 116.833 109 121.5 97.5C126 82.1666 130.134 52.6402 113 47.5C98 43 90.5 47 86.5 54C83.7507 58.8113 84.3049 74.4905 85.8606 84.8357C86.229 87.2849 86.5143 89.7459 86.5128 92.2227C86.5057 104.044 85.2963 119.847 61.5 128.5Z" stroke="black" stroke-width="8"/>
</svg>
