<svg width="173" height="134" viewBox="0 0 173 134" fill="none" xmlns="http://www.w3.org/2000/svg">
<path fill-rule="evenodd" clip-rule="evenodd" d="M162.951 8.09518C161.921 7.80099 160.82 8.20857 160.229 9.10212L109.337 86.1536L102.662 81.7446L153.554 4.69309C156.069 0.886066 160.762 -0.850418 165.149 0.40299L165.287 0.442389C167.748 1.14562 169.85 2.75805 171.167 4.95307C172.98 7.97545 173.085 11.725 171.444 14.8441L128.039 97.3121L120.96 93.5861L164.364 11.1181C164.704 10.472 164.683 9.69517 164.307 9.06904C164.034 8.6143 163.599 8.28027 163.089 8.13458L162.951 8.09518Z" fill="black"/>
<path fill-rule="evenodd" clip-rule="evenodd" d="M107.067 119.037C108.167 117.902 109 116.406 109 112.55C109 106.22 104.055 101.449 98.3926 101.449C96.7144 101.449 95.8983 101.714 95.4508 101.92C94.9844 102.135 94.3794 102.536 93.4203 103.568C92.3958 104.67 91.338 106.068 89.7058 108.225C89.6531 108.295 89.5999 108.365 89.546 108.436C87.9798 110.507 86.0714 113.008 83.6489 115.787C81.9421 118.213 79.6256 120.138 77.8184 121.509C77.2221 121.961 76.5959 122.414 75.9684 122.856C77.2249 123.226 78.5572 123.578 79.9315 123.899C83.2949 124.683 86.7061 125.227 89.6876 125.395C92.8419 125.572 94.7849 125.282 95.6485 124.967C102.352 122.519 105.482 120.674 107.067 119.037ZM77.3042 110.889C75.6734 113.437 72.0333 115.891 68.7123 118.129C64.4552 120.999 60.7225 123.515 62.4183 125.423C65.8211 129.25 88.8822 135.955 98.3926 132.482C112.038 127.499 117 123.099 117 112.55C117 102.001 108.669 93.4491 98.3926 93.4491C90.8483 93.4491 88.1411 97.0298 83.472 103.205C81.781 105.442 79.8328 108.019 77.3042 110.889Z" fill="black"/>
<path fill-rule="evenodd" clip-rule="evenodd" d="M49.55 76.0049C44.9553 79.2869 39.6261 79.8953 36.0327 79.4726L36.9674 71.5274C39.0407 71.7713 42.2616 71.3797 44.9001 69.4951C47.3386 67.7533 49.8276 64.3482 50.0013 57.4L57.9988 57.6C57.7725 66.6518 54.3449 72.58 49.55 76.0049Z" fill="black"/>
<path fill-rule="evenodd" clip-rule="evenodd" d="M36 85C51.464 85 64 72.464 64 57C64 49.8212 59.5522 40.7527 52.2793 31.0207C47.1338 24.1355 41.1562 17.6644 35.8588 12.2274C29.0176 18.9313 22.6855 25.7173 17.7457 32.5888C11.4371 41.3645 8 49.4652 8 57C8 72.464 20.536 85 36 85ZM36 1C18 18 0 37.1177 0 57C0 76.8822 16.1177 93 36 93C55.8823 93 72 76.8822 72 57C72 37.1177 48.5 13.5 36 1Z" fill="black"/>
</svg>
