<svg width="198" height="310" viewBox="0 0 198 310" fill="none" xmlns="http://www.w3.org/2000/svg">
<path fill-rule="evenodd" clip-rule="evenodd" d="M10.3609 36.0457C8.77713 37.7203 6.53361 38.7719 4.03833 38.7719C-0.756273 38.7719 -4.64305 34.9128 -4.64305 30.1524C-4.64305 25.392 -0.756273 21.5329 4.03833 21.5329V5.52533C-9.60136 5.52533 -20.7656 16.61 -20.7656 30.1524C-20.7656 43.6948 -9.60136 54.7795 4.03833 54.7795C11.203 54.7795 17.678 51.7701 22.0919 46.9826L10.3609 36.0457Z" fill="white"/>
<path fill-rule="evenodd" clip-rule="evenodd" d="M3.54199 5.52509V21.7406C8.36423 21.7406 12.2734 25.6498 12.2734 30.472H28.4889C28.4889 16.7537 17.2603 5.52509 3.54199 5.52509Z" fill="#A63244"/>
<path fill-rule="evenodd" clip-rule="evenodd" d="M12.0442 29.8324C12.0442 32.6474 10.7185 35.1495 8.65918 36.7651L18.7903 49.662C24.6876 45.0448 28.4888 37.8876 28.4888 29.8324H12.0442Z" fill="#F1A1AD"/>
<path d="M183.287 76.5279C190.353 76.5279 196.081 70.8001 196.081 63.7346C196.081 56.669 190.353 50.9413 183.287 50.9413C176.222 50.9413 170.494 56.669 170.494 63.7346C170.494 70.8001 176.222 76.5279 183.287 76.5279Z" fill="white"/>
<path d="M10.2585 209.578C15.0278 209.578 18.894 205.712 18.894 200.943C18.894 196.173 15.0278 192.307 10.2585 192.307C5.48928 192.307 1.62305 196.173 1.62305 200.943C1.62305 205.712 5.48928 209.578 10.2585 209.578Z" fill="#EA3854"/>
<g opacity="0.6">
<path d="M13.0704 196.519L14.1867 197.635L5.29794 206.524L4.18164 205.408L13.0704 196.519Z" fill="white"/>
<path d="M6.43455 199.953C7.51949 199.953 8.40231 199.07 8.40231 197.985C8.40231 196.9 7.51949 196.017 6.43455 196.017C5.34962 196.017 4.4668 196.9 4.4668 197.985C4.4668 199.07 5.34962 199.953 6.43455 199.953ZM6.43455 197.596C6.64928 197.596 6.8238 197.771 6.8238 197.986C6.8238 198.2 6.64927 198.375 6.43455 198.375C6.21983 198.375 6.0453 198.2 6.0453 197.986C6.04558 197.771 6.21983 197.596 6.43455 197.596Z" fill="white"/>
<path d="M11.9756 203.055C10.8906 203.055 10.0078 203.938 10.0078 205.023C10.0078 206.108 10.8906 206.991 11.9756 206.991C13.0605 206.991 13.9433 206.108 13.9433 205.023C13.9433 203.938 13.0605 203.055 11.9756 203.055ZM11.9756 205.412C11.7608 205.412 11.5863 205.238 11.5863 205.023C11.5863 204.808 11.7608 204.634 11.9756 204.634C12.1903 204.634 12.3648 204.808 12.3648 205.023C12.3645 205.238 12.1903 205.412 11.9756 205.412Z" fill="white"/>
</g>
<path d="M58.8728 72.0502C63.642 72.0502 67.5082 68.184 67.5082 63.4148C67.5082 58.6455 63.642 54.7793 58.8728 54.7793C54.1035 54.7793 50.2373 58.6455 50.2373 63.4148C50.2373 68.184 54.1035 72.0502 58.8728 72.0502Z" fill="#EA3854"/>
<path d="M41.6023 196.785C46.3715 196.785 50.2377 192.919 50.2377 188.149C50.2377 183.38 46.3715 179.514 41.6023 179.514C36.833 179.514 32.9668 183.38 32.9668 188.149C32.9668 192.919 36.833 196.785 41.6023 196.785Z" fill="#56919C"/>
<path d="M72.9461 138.575C79.4817 138.575 84.7799 133.277 84.7799 126.742C84.7799 120.206 79.4817 114.908 72.9461 114.908C66.4105 114.908 61.1123 120.206 61.1123 126.742C61.1123 133.277 66.4105 138.575 72.9461 138.575Z" fill="#F9DCE0"/>
<path d="M161.539 91.2402C171.078 91.2402 178.81 83.5077 178.81 73.9692C178.81 64.4308 171.078 56.6983 161.539 56.6983C152.001 56.6983 144.269 64.4308 144.269 73.9692C144.269 83.5077 152.001 91.2402 161.539 91.2402Z" fill="#EA3854"/>
<path d="M-7.01199 179.514C-2.24275 179.514 1.62348 175.648 1.62348 170.878C1.62348 166.109 -2.24275 162.243 -7.01199 162.243C-11.7812 162.243 -15.6475 166.109 -15.6475 170.878C-15.6475 175.648 -11.7812 179.514 -7.01199 179.514Z" fill="white"/>
<path d="M41.922 161.603C45.4548 161.603 48.3187 158.739 48.3187 155.207C48.3187 151.674 45.4548 148.81 41.922 148.81C38.3893 148.81 35.5254 151.674 35.5254 155.207C35.5254 158.739 38.3893 161.603 41.922 161.603Z" fill="#C1DEE2"/>
<path d="M99.4915 147.531C105.497 147.531 110.366 142.662 110.366 136.656C110.366 130.651 105.497 125.782 99.4915 125.782C93.4858 125.782 88.6172 130.651 88.6172 136.656C88.6172 142.662 93.4858 147.531 99.4915 147.531Z" fill="white"/>
<path d="M103.969 102.114C109.975 102.114 114.843 97.2459 114.843 91.2401C114.843 85.2344 109.975 80.3658 103.969 80.3658C97.9633 80.3658 93.0947 85.2344 93.0947 91.2401C93.0947 97.2459 97.9633 102.114 103.969 102.114Z" fill="white"/>
<path d="M18.8938 148.81C24.8995 148.81 29.7681 143.941 29.7681 137.936C29.7681 131.93 24.8995 127.061 18.8938 127.061C12.8881 127.061 8.01953 131.93 8.01953 137.936C8.01953 143.941 12.8881 148.81 18.8938 148.81Z" fill="#EA3854"/>
<path d="M136.592 121.944C143.658 121.944 149.385 116.216 149.385 109.151C149.385 102.085 143.658 96.3575 136.592 96.3575C129.527 96.3575 123.799 102.085 123.799 109.151C123.799 116.216 129.527 121.944 136.592 121.944Z" fill="#EA3854"/>
<path fill-rule="evenodd" clip-rule="evenodd" d="M83.7315 88.9837C87.8148 96.6141 87.3296 115.969 82.0524 117.333C79.9479 117.877 75.4648 116.545 70.902 113.787L73.7657 134.101H56.8545L62.6759 106.896C59.4293 103.075 57.2319 98.3925 57.5991 93.1457C58.6572 78.0275 79.6483 81.3534 83.7315 88.9837Z" fill="#EAC7A8"/>
<path fill-rule="evenodd" clip-rule="evenodd" d="M61.3771 110.3C59.2546 100.832 53.2079 94.3791 54.1313 90.1477C54.747 87.3268 56.3879 85.5725 59.054 84.885C60.4329 79.2923 64.8802 76.9136 72.3958 77.7487C83.6692 79.0013 90.5498 83.6951 87.5784 94.0233C84.847 94.0233 81.5496 93.033 76.9899 94.7298C75.5432 95.2682 74.5084 96.9377 73.8856 99.7385H71.8251C69.8254 96.4148 67.8536 95.1934 65.9097 96.0744C63.9659 96.9553 63.5241 99.0952 64.5842 102.494L63.5692 110.3H61.3771Z" fill="#0A1F44"/>
<path fill-rule="evenodd" clip-rule="evenodd" d="M26.289 222.407H80.7249L87.8578 310.006H6.8252L26.289 222.407Z" fill="#C5CFD6"/>
<path fill-rule="evenodd" clip-rule="evenodd" d="M26.289 222.407H43.0311L53.0516 310.006H6.8252L26.289 222.407Z" fill="black" fill-opacity="0.1"/>
<path fill-rule="evenodd" clip-rule="evenodd" d="M142.787 207.4L142.989 207.281C148.814 204.009 158.327 208.452 158.321 213.392C158.301 228.343 144.691 298.81 143.98 303.264C143.27 307.719 135.658 308.895 135.214 303.279C134.509 294.342 133.198 263.404 134.51 249.084C135.051 243.173 135.634 237.543 136.208 232.52C129.067 245.449 118.022 263.963 103.073 288.059L94.958 284.342C101.33 263.293 106.556 248.433 110.634 239.762C117.617 224.915 124.164 212.2 126.92 207.721C131.254 200.676 138.8 203.135 142.787 207.4Z" fill="#EAC7A8"/>
<path fill-rule="evenodd" clip-rule="evenodd" d="M95.5387 272.653L123.391 206.503C130.063 195.742 148.771 208.693 146.496 214.934C141.33 229.104 115.057 274.976 113.518 279.198L95.5387 272.653Z" fill="#772431"/>
<path fill-rule="evenodd" clip-rule="evenodd" d="M93.991 280.171C92.2561 281.603 91.1275 282.772 90.6051 283.679C89.9698 284.783 89.226 286.499 88.3738 288.828C89.6503 289.566 101.123 296.207 122.792 308.75C125.393 306.303 125.799 304.404 124.008 303.052C122.217 301.7 120.739 300.56 119.574 299.632L107.694 283.222C107.466 282.907 107.025 282.836 106.71 283.066C106.705 283.069 106.699 283.073 106.694 283.078L104.226 284.983C101.961 284.785 100.271 284.363 99.1562 283.718C98.25 283.193 97.2099 282.102 96.0358 280.444C95.5853 279.807 94.7055 279.658 94.0709 280.11C94.0435 280.129 94.0169 280.149 93.991 280.171Z" fill="#0A1F44"/>
<path fill-rule="evenodd" clip-rule="evenodd" d="M133.432 299.693C132.644 301.803 132.25 303.382 132.25 304.429C132.25 305.703 132.462 307.562 132.885 310.006C134.359 310.006 147.607 310.006 172.628 310.006C173.66 306.583 173.064 304.735 170.839 304.462C168.614 304.189 166.765 303.943 165.294 303.723L146.822 295.467C146.466 295.308 146.05 295.468 145.891 295.824C145.889 295.83 145.886 295.836 145.883 295.843L144.696 298.73C142.636 299.694 140.962 300.176 139.674 300.176C138.628 300.176 137.183 299.752 135.339 298.905C134.632 298.579 133.795 298.891 133.471 299.6C133.457 299.631 133.444 299.662 133.432 299.693Z" fill="#0A1F44"/>
<path fill-rule="evenodd" clip-rule="evenodd" d="M160.272 218.474C160.272 237.242 151.382 281.021 151.377 285.153L132.249 285.168C135.049 246.105 136.041 226.363 135.227 225.942C134.006 225.311 85.1627 230.831 70.5138 230.831C49.3899 230.831 40.6515 217.476 39.9424 192.736H81.7878C90.308 193.65 134.75 202.637 151.254 205.727C158.32 207.049 160.272 213.304 160.272 218.474Z" fill="#A63244"/>
<path fill-rule="evenodd" clip-rule="evenodd" d="M24.4198 171.154L39.8493 171.212C22.9304 209.384 14.1086 229.37 13.3839 231.17C11.7535 235.222 15.2038 241.391 16.6793 244.707C11.8737 246.863 12.3857 238.879 6.32354 241.706C0.790292 244.287 -3.41884 248.964 -9.81171 245.009C-10.5977 244.523 -11.459 242.692 -9.37798 241.261C-4.19348 237.697 3.2777 231.459 4.28717 229.406C5.66377 226.606 12.3746 207.189 24.4198 171.154ZM155.286 157.637C152.169 160.242 149.006 163.124 149.561 164.515C150.117 165.905 153.016 165.388 153.496 167.527C153.816 168.952 149.111 169.184 139.381 168.222L116.807 177.194L111.815 164.698L139.636 160.893C145.201 157.79 150.321 155.689 154.995 154.59C156.311 154.552 158.403 155.031 155.286 157.637Z" fill="#DCAE92"/>
<path fill-rule="evenodd" clip-rule="evenodd" d="M66.6832 122.092L78.764 122.899C81.7393 149.886 97.9455 166.932 134.23 161.161L139.051 195.914C105.137 200.308 75.395 186.696 69.2995 149.84C67.7215 140.299 66.4756 130.37 66.6832 122.092Z" fill="#C7D1D9"/>
<path fill-rule="evenodd" clip-rule="evenodd" d="M60.7131 118.56L60.7226 118.571L79.0268 122.774C79.0268 154.021 88.8558 174.071 94.0434 196.986L94.1991 197.681L44.7648 197.681C44.0685 205.7 43.6408 213.942 43.418 222.407H6.40332C14.7911 177.663 32.4947 143.048 59.5143 118.56H60.7131Z" fill="#F2F2F2"/>
<path fill-rule="evenodd" clip-rule="evenodd" d="M52.564 152.652C51.2901 172.321 52.0393 187.33 54.8118 197.681L44.7646 197.681C46.1138 182.145 48.4718 167.446 52.3035 153.585L52.564 152.652Z" fill="black" fill-opacity="0.1"/>
<path d="M187.765 0.407959H122.52C121.106 0.407959 119.961 1.55351 119.961 2.96662V8.08393C119.961 9.49704 121.106 10.6426 122.52 10.6426H187.765C189.178 10.6426 190.324 9.49704 190.324 8.08393V2.96662C190.324 1.55351 189.178 0.407959 187.765 0.407959Z" fill="#EA3854"/>
<path d="M162.179 15.7599H122.52C121.106 15.7599 119.961 16.9054 119.961 18.3185V23.4359C119.961 24.849 121.106 25.9945 122.52 25.9945H162.179C163.592 25.9945 164.737 24.849 164.737 23.4359V18.3185C164.737 16.9054 163.592 15.7599 162.179 15.7599Z" fill="white"/>
<path d="M172.413 31.1119H122.52C121.106 31.1119 119.961 32.2574 119.961 33.6705V38.7879C119.961 40.201 121.106 41.3465 122.52 41.3465H172.413C173.827 41.3465 174.972 40.201 174.972 38.7879V33.6705C174.972 32.2574 173.827 31.1119 172.413 31.1119Z" fill="white"/>
<path d="M8.65928 253.715C8.65928 252.655 7.80011 251.796 6.74028 251.796C5.68045 251.796 4.82129 252.655 4.82129 253.715V286.338C4.82129 287.398 5.68045 288.257 6.74028 288.257C7.80011 288.257 8.65928 287.398 8.65928 286.338V253.715Z" fill="#8A2333"/>
<path fill-rule="evenodd" clip-rule="evenodd" d="M160.899 277.074C160.899 266.691 169.248 258.193 179.449 258.193V277.074L166.772 290.816C163.166 287.456 160.899 282.527 160.899 277.074Z" fill="#F1A1AD"/>
<path fill-rule="evenodd" clip-rule="evenodd" d="M178.741 276.743H197.36C197.36 281.586 195.397 286.123 192.293 289.42C188.879 293.027 184.018 295.293 178.741 295.293C173.881 295.293 169.432 293.337 166.017 290.245L178.741 276.743Z" fill="white"/>
<path fill-rule="evenodd" clip-rule="evenodd" d="M198 276.743C198 266.542 189.651 258.193 179.45 258.193V276.743H198ZM170.175 258.193L177.595 274.888L160.899 267.468C162.55 263.14 166.258 259.844 170.175 258.193Z" fill="#A63244"/>
<path d="M40.9626 212.777C46.0851 212.777 50.2378 208.624 50.2378 203.501C50.2378 198.379 46.0851 194.226 40.9626 194.226C35.8401 194.226 31.6875 198.379 31.6875 203.501C31.6875 208.624 35.8401 212.777 40.9626 212.777Z" fill="#8A2333"/>
<path d="M68.1486 154.567C70.6215 154.567 72.6262 152.562 72.6262 150.089C72.6262 147.617 70.6215 145.612 68.1486 145.612C65.6756 145.612 63.6709 147.617 63.6709 150.089C63.6709 152.562 65.6756 154.567 68.1486 154.567Z" fill="white"/>
<path d="M124.439 155.846C129.738 155.846 134.034 151.551 134.034 146.251C134.034 140.952 129.738 136.656 124.439 136.656C119.14 136.656 114.844 140.952 114.844 146.251C114.844 151.551 119.14 155.846 124.439 155.846Z" fill="#8A2333"/>
<g opacity="0.6">
<path d="M62.292 59.3116L63.2861 60.3057L55.3701 68.2217L54.376 67.2276L62.292 59.3116Z" fill="white"/>
<path d="M56.3823 62.3699C57.3485 62.3699 58.1347 61.5837 58.1347 60.6175C58.1347 59.6513 57.3485 58.8651 56.3823 58.8651C55.4161 58.8651 54.6299 59.6513 54.6299 60.6175C54.6299 61.5839 55.4161 62.3699 56.3823 62.3699ZM56.3823 60.2711C56.5735 60.2711 56.7289 60.4266 56.7289 60.6178C56.7289 60.809 56.5735 60.9644 56.3823 60.9644C56.1911 60.9644 56.0356 60.809 56.0356 60.6178C56.0359 60.4266 56.1911 60.2711 56.3823 60.2711Z" fill="white"/>
<path d="M61.3178 65.1327C60.3516 65.1327 59.5654 65.9186 59.5654 66.8851C59.5654 67.8515 60.3516 68.6375 61.3178 68.6375C62.284 68.6375 63.0702 67.8515 63.0702 66.8851C63.0702 65.9187 62.284 65.1327 61.3178 65.1327ZM61.3178 67.2317C61.1266 67.2317 60.9712 67.0763 60.9712 66.8851C60.9712 66.6938 61.1266 66.5384 61.3178 66.5384C61.5091 66.5384 61.6645 66.6938 61.6645 66.8851C61.6642 67.0763 61.5091 67.2317 61.3178 67.2317Z" fill="white"/>
</g>
<g opacity="0.6">
<path d="M168.351 65.8205L170.239 67.708L155.209 82.7377L153.321 80.8502L168.351 65.8205Z" fill="white"/>
<path d="M157.131 71.6273C158.965 71.6273 160.458 70.1345 160.458 68.3C160.458 66.4656 158.965 64.9728 157.131 64.9728C155.296 64.9728 153.804 66.4656 153.804 68.3C153.804 70.1349 155.296 71.6273 157.131 71.6273ZM157.131 67.6424C157.494 67.6424 157.789 67.9375 157.789 68.3006C157.789 68.6636 157.494 68.9587 157.131 68.9587C156.768 68.9587 156.473 68.6636 156.473 68.3006C156.473 67.9375 156.768 67.6424 157.131 67.6424Z" fill="white"/>
<path d="M166.5 76.8727C164.666 76.8727 163.173 78.3649 163.173 80.1999C163.173 82.0347 164.666 83.5271 166.5 83.5271C168.335 83.5271 169.827 82.0348 169.827 80.1999C169.827 78.3651 168.335 76.8727 166.5 76.8727ZM166.5 80.858C166.137 80.858 165.842 80.5629 165.842 80.1998C165.842 79.8368 166.137 79.5417 166.5 79.5417C166.863 79.5417 167.158 79.8368 167.158 80.1998C167.158 80.5629 166.863 80.858 166.5 80.858Z" fill="white"/>
</g>
</svg>
