<svg width="17" height="20" viewBox="0 0 17 20" fill="none" xmlns="http://www.w3.org/2000/svg">
<path d="M15.0239 0.37409C14.8815 -0.0733699 14.2714 -0.134387 14.0273 0.272365C12.1358 3.73012 8.0069 4.78764 8.53571 7.71647C8.65773 8.34694 9.02389 8.87586 9.55267 9.28261C10.4679 7.65545 11.5866 6.57751 12.2781 5.98772L7.13228 16.6251L1.55938 5.13348C1.35593 4.72673 0.867883 4.56398 0.461138 4.747C0.0543928 4.95045 -0.108356 5.43849 0.0746596 5.84523L6.37977 18.8622C6.52221 19.147 6.80697 19.33 7.11198 19.33C7.41701 19.33 7.72219 19.147 7.84419 18.8622L12.0544 10.1978C13.2748 10.2995 14.5155 9.97406 15.2477 9.11982C16.7321 7.37066 15.8779 2.89607 15.0237 0.374024L15.0239 0.37409Z" fill="white"/>
</svg>
