<svg width="20" height="20" viewBox="0 0 20 20" fill="none" xmlns="http://www.w3.org/2000/svg">
<path d="M16.9568 9.6649L14.9162 7.62337C14.8558 7.56282 14.8218 7.48098 14.8218 7.3954V4.50823L11.9343 4.50913C11.8487 4.50913 11.7667 4.47511 11.7063 4.41486L9.66495 2.37302L7.62342 4.41367C7.56286 4.47407 7.48103 4.50809 7.39545 4.50809H4.50813V7.39556C4.50813 7.48115 4.4741 7.56298 4.41385 7.62338L2.37305 9.66492L4.4137 11.7065C4.4741 11.7667 4.50812 11.8488 4.50812 11.9344V14.8217H7.39621C7.48179 14.8217 7.56363 14.8558 7.62403 14.916L9.66495 16.9572L11.7058 14.9164C11.7665 14.8557 11.8483 14.8217 11.9337 14.8217H14.8217L14.8218 11.9344C14.8218 11.8488 14.8558 11.767 14.9161 11.7066L16.9568 9.6649ZM8.05355 6.76408H9.02043C9.04876 7.049 8.87384 8.06504 9.53048 8.96631C9.4335 9.43557 9.28602 9.74241 9.09191 9.94055C7.80112 8.64047 8.09699 7.01083 8.05355 6.76412V6.76408ZM7.08667 9.04347C7.08667 10.5763 6.26456 11.1228 5.49537 11.1228C4.43195 11.1228 4.06372 10.0781 3.9516 9.91968L4.79708 9.44996C5.01231 9.82346 5.11768 10.1556 5.49537 10.1556C6.01156 10.1556 6.11976 9.55068 6.11976 9.0432V6.76412H7.08663L7.08667 9.04347ZM12.374 11.325C11.7997 11.325 11.1658 11.1851 10.4494 10.8432C9.44802 12.1283 7.33876 11.8915 7.08648 11.921V10.9542H7.57002C9.46437 10.9542 10.3095 10.4191 10.3095 7.24757V6.76404H11.2764C11.262 7.07384 11.3677 8.72358 10.9044 9.98963C12.1526 10.5733 13.0213 10.3607 13.9981 9.98033C13.8473 9.8333 13.7232 9.68791 13.6114 9.55646C12.9378 8.76597 12.2433 9.02017 12.2433 9.02017V8.05329C12.2433 8.05329 13.2846 7.68204 14.3474 8.92935C14.5729 9.19404 14.8066 9.46787 15.2081 9.67967C15.3756 9.76825 15.4763 9.94586 15.4655 10.1347C15.4545 10.3238 15.3346 10.4889 15.1582 10.558C14.1942 10.9473 13.3577 11.3249 12.374 11.3249L12.374 11.325Z" fill="white"/>
<path d="M19.075 9.04869L16.7558 6.72836V3.44579C16.7558 2.96514 16.3648 2.57423 15.8837 2.57423L12.6016 2.57512L10.2813 0.254949C9.94136 -0.0849831 9.38873 -0.0849831 9.04882 0.254949L6.72833 2.5742H3.44577C2.96511 2.5742 2.5742 2.96511 2.5742 3.44577V6.72833L0.254949 9.04866C-0.0849831 9.3886 -0.0849831 9.94122 0.254949 10.2811L2.5742 12.6016V15.8845C2.5742 16.3649 2.96511 16.7558 3.44577 16.7558H6.72864L9.05031 19.0774C9.21968 19.2454 9.4418 19.3292 9.66438 19.3292C9.88771 19.3292 10.1107 19.2448 10.2813 19.0755L12.6015 16.7558H15.8843C16.3648 16.7558 16.7558 16.3648 16.7558 15.8845L16.7549 12.6016L19.0752 10.2813C19.415 9.94137 19.4149 9.3886 19.075 9.04869ZM17.6405 9.89297L15.4665 12.0679V15.1442C15.4665 15.3222 15.3221 15.4665 15.1442 15.4665H12.0673L9.89297 17.6408C9.76707 17.7667 9.56308 17.7667 9.43718 17.6408L7.26269 15.4665H4.18579C4.00788 15.4665 3.86355 15.3222 3.86355 15.1442V12.0679L1.68952 9.89297C1.56362 9.76707 1.56362 9.56308 1.68952 9.43718L3.86355 7.26208V4.18575C3.86355 4.00784 4.00788 3.86351 4.18579 3.86351H7.26212L9.43707 1.68948C9.56296 1.56358 9.76711 1.56358 9.89286 1.68948L12.0678 3.86458L15.1443 3.86368C15.3223 3.86368 15.4665 4.00787 15.4665 4.18593V7.26195L17.6406 9.43689C17.7663 9.56295 17.7663 9.76708 17.6406 9.89299L17.6405 9.89297Z" fill="white"/>
</svg>
