<svg width="20" height="20" viewBox="0 0 20 20" fill="none" xmlns="http://www.w3.org/2000/svg">
<path d="M18.1234 7.13903C18.1234 8.04931 17.2131 9.76399 13.9452 10.7802C13.0533 11.0323 12.2856 11.6041 11.7888 12.3866C11.2919 13.1688 11.1005 14.1067 11.2515 15.0212C12.3997 13.6434 14.0108 12.7315 15.7831 12.4559C13.087 13.4548 10.5696 17.3152 10.5696 17.3152C10.1973 16.0887 9.52828 14.973 8.62206 14.0668C7.71583 13.1604 6.60011 12.4914 5.37367 12.119C7.56985 12.0123 9.71241 14.1547 9.71241 14.1547C10.9983 9.28055 6.07128 8.10132 3.71282 7.35158V7.35174C2.30668 6.87285 1.25175 5.69585 0.928974 4.24594C-0.514195 7.5669 -0.463757 12.7099 2.42854 14.7986C5.32067 16.8873 8.64245 15.334 8.64245 15.334C10.1419 16.6729 10.1419 19.7266 10.1419 19.7266H11.0521C11.1598 17.4236 12.0162 16.5124 12.0162 16.5124C14.4665 17.8266 17.2661 15.7088 17.2661 15.7088C21.3417 12.5865 18.1235 7.13894 18.1235 7.13894L18.1234 7.13903Z" fill="white"/>
<path d="M11.7832 9.38662C12.6567 9.38614 13.4942 9.03847 14.1111 8.41994C14.728 7.80157 15.0736 6.9632 15.0718 6.08979C15.0718 4.26922 11.7832 0 11.7832 0C11.7832 0 8.48633 4.27005 8.48633 6.08979C8.48665 6.96403 8.83399 7.80256 9.45222 8.42077C10.0704 9.03897 10.909 9.3865 11.7832 9.38666L11.7832 9.38662ZM12.1266 6.77651C12.9283 6.08201 13.3666 5.05794 13.3159 3.99862C13.3159 3.99862 14.5853 6.01784 13.4756 7.66205C13.4416 7.72153 13.3986 7.77535 13.348 7.82174C13.1788 8.03768 12.9199 8.16423 12.6455 8.1652C12.4298 8.15906 12.2265 8.0637 12.0841 7.90159C11.9418 7.73963 11.8732 7.5258 11.895 7.31114C11.9038 7.11364 11.9896 6.92728 12.1341 6.79232C12.1334 6.78634 12.1308 6.78088 12.1266 6.77651ZM11.0508 3.40028C11.3603 3.40108 11.611 3.65177 11.6119 3.9613C11.6133 4.11048 11.5546 4.254 11.4491 4.35955C11.3436 4.46509 11.2 4.52376 11.0508 4.52247C10.742 4.52053 10.4924 4.27016 10.4914 3.96132C10.4963 3.6539 10.7442 3.40563 11.0516 3.4003L11.0508 3.40028Z" fill="white"/>
</svg>
