<svg width="21" height="20" viewBox="0 0 21 20" fill="none" xmlns="http://www.w3.org/2000/svg">
<path d="M7.51149 4.83789H10.48H13.5035L16.4171 9.95034L13.5035 15.0628H10.48H7.51149L4.54297 9.95034L6.02723 7.39412L7.51149 4.83789Z" fill="white"/>
<path d="M10.4795 0L12.5742 3.2159H8.38477L10.4795 0Z" fill="white"/>
<path d="M19.1489 5.00257L17.4113 8.42462L15.3165 4.79643L19.1489 5.00257Z" fill="white"/>
<path d="M1.85302 5.00257L3.5907 8.42462L5.68544 4.79643L1.85302 5.00257Z" fill="white"/>
<path d="M19.0405 14.8561L15.2081 15.0622L17.3028 11.434L19.0405 14.8561Z" fill="white"/>
<path d="M1.96143 14.8561L5.79385 15.0622L3.69911 11.434L1.96143 14.8561Z" fill="white"/>
<path d="M10.4853 19.9277L8.3906 16.7118L12.5801 16.7118L10.4853 19.9277Z" fill="white"/>
</svg>
