<svg width="69" height="126" viewBox="0 0 69 126" fill="none" xmlns="http://www.w3.org/2000/svg">
<path fill-rule="evenodd" clip-rule="evenodd" d="M55.9726 49H12.0591L8.00029 118L60.0314 118L55.9726 49ZM12.0591 41C7.8233 41 4.32165 44.3017 4.07291 48.5302L0.0140887 117.53C-0.256208 122.125 3.39731 126 8.00029 126H60.0314C64.6344 126 68.2879 122.125 68.0176 117.53L63.9588 48.5302C63.7101 44.3017 60.2084 41 55.9726 41H12.0591Z" fill="black"/>
<path d="M34.9795 59L41.0837 64.1709L34.6201 71.8012L28.5159 66.6303L34.9795 59Z" fill="black"/>
<path d="M43.9795 94L50.0837 99.1709L43.6201 106.801L37.5159 101.63L43.9795 94Z" fill="black"/>
<path d="M23.9795 81L30.0837 86.1709L23.6201 93.8012L17.5159 88.6303L23.9795 81Z" fill="black"/>
<path fill-rule="evenodd" clip-rule="evenodd" d="M53.2698 8H14.7622L19.7622 28H48.2698L53.2698 8ZM14.7622 0C9.55767 0 5.73881 4.89112 7.0011 9.94029L12.0011 29.9403C12.8914 33.5016 16.0913 36 19.7622 36H48.2698C51.9408 36 55.1406 33.5016 56.031 29.9403L61.031 9.94028C62.2933 4.89111 58.4744 0 53.2698 0H14.7622Z" fill="black"/>
</svg>
