<svg width="202" height="159" viewBox="0 0 202 159" fill="none" xmlns="http://www.w3.org/2000/svg">
<path fill-rule="evenodd" clip-rule="evenodd" d="M48.9609 0H159.961V84.5H151.961V8H56.9609V54H48.9609V0Z" fill="black"/>
<path fill-rule="evenodd" clip-rule="evenodd" d="M32.2988 61.0412C21.1875 64.657 10.4051 69.8396 3.92209 73.4863L0 66.5137C6.85028 62.6604 18.1179 57.243 29.8233 53.4338C35.6796 51.5281 41.7399 49.9936 47.4713 49.282C53.1583 48.576 58.8012 48.6433 63.67 50.1871C73.0051 53.147 85.531 59.3572 97.5049 65.2937C99.1562 66.1124 100.797 66.9259 102.418 67.7249C109.2 71.0691 115.676 74.1897 121.304 76.5341C127.059 78.9313 131.461 80.3112 134.246 80.5102C141.126 81.0016 148.887 81.353 158.928 79.6794C168.99 78.0025 181.499 74.2634 197.716 66.4007L201.206 73.5992C184.423 81.7366 171.182 85.7475 160.244 87.5706C149.285 89.397 140.796 88.9984 133.676 88.4898C129.461 88.1888 123.988 86.3187 118.228 83.919C112.34 81.4666 105.66 78.2434 98.8796 74.9001C97.2362 74.0898 95.5894 73.2739 93.9466 72.4599C81.8398 66.4617 69.9494 60.5706 61.2521 57.8129C57.9209 56.7567 53.568 56.5865 48.457 57.2211C43.3905 57.8501 37.8508 59.2344 32.2988 61.0412Z" fill="black"/>
<path fill-rule="evenodd" clip-rule="evenodd" d="M63.8583 77.2622L55.1234 82.1306L59.9919 90.8655L68.7268 85.997L63.8583 77.2622ZM46.9614 79.8107L57.672 99.0275L76.8888 88.3169L66.1782 69.1002L46.9614 79.8107Z" fill="black"/>
<path fill-rule="evenodd" clip-rule="evenodd" d="M94.8197 100.895L88.8555 108.921L96.8822 114.885L102.846 106.859L94.8197 100.895ZM80.4609 110.159L98.1197 123.28L111.241 105.621L93.5822 92.5L80.4609 110.159Z" fill="black"/>
<path fill-rule="evenodd" clip-rule="evenodd" d="M152.169 106.778L149.739 116.478L159.439 118.908L161.869 109.208L152.169 106.778ZM142.461 120.841L163.802 126.186L169.147 104.845L147.806 99.5L142.461 120.841Z" fill="black"/>
<path fill-rule="evenodd" clip-rule="evenodd" d="M106.182 141.506L107.467 151.423L117.384 150.138L116.099 140.221L106.182 141.506ZM102.287 158.144L124.105 155.318L121.278 133.5L99.4608 136.326L102.287 158.144Z" fill="black"/>
<path fill-rule="evenodd" clip-rule="evenodd" d="M44.0065 117.727L41.6884 127.455L51.416 129.773L53.7341 120.046L44.0065 117.727ZM34.4609 131.901L55.8617 137.001L60.9616 115.6L39.5609 110.5L34.4609 131.901Z" fill="black"/>
</svg>
