<svg width="118" height="156" viewBox="0 0 118 156" fill="none" xmlns="http://www.w3.org/2000/svg">
<path fill-rule="evenodd" clip-rule="evenodd" d="M59 147.5C87.1665 147.5 110 124.667 110 96.5C110 89.9733 107.866 82.2928 103.916 73.7869C99.9976 65.3489 94.5192 56.5793 88.3727 48.0037C78.5453 34.2925 67.4258 21.6281 58.9143 12.0024C49.7415 22.1562 38.4319 35.0144 28.7134 48.7205C16.4831 65.9691 8 82.9176 8 96.5C8 124.667 30.8335 147.5 59 147.5ZM53.5877 5.96434C33.0244 28.6924 0 66.7056 0 96.5C0 129.085 26.4152 155.5 59 155.5C91.5848 155.5 118 129.085 118 96.5C118 66.9375 83.4299 27.6375 64.3221 6.03974C64.1735 5.87173 64.0258 5.70479 63.879 5.53893C62.0972 3.52507 60.4568 1.67105 59 0C58.3826 0.680779 57.745 1.38253 57.0894 2.10427C55.9718 3.33448 54.8014 4.62279 53.5877 5.96434Z" fill="black"/>
<path fill-rule="evenodd" clip-rule="evenodd" d="M83.9007 129.593C75.4892 136.008 65.8598 138.834 59.3981 139.48L58.6021 131.52C63.807 130.999 71.9776 128.625 79.0494 123.232C86.0027 117.929 91.9238 109.704 93.0151 97.1535L100.985 97.8465C99.6763 112.896 92.4308 123.088 83.9007 129.593Z" fill="black"/>
</svg>
