<svg width="136" height="167" viewBox="0 0 136 167" fill="none" xmlns="http://www.w3.org/2000/svg">
<path fill-rule="evenodd" clip-rule="evenodd" d="M26.8454 116.062C18.3025 117.432 10.4917 119.896 5.99648 121.709L3.00293 114.291C8.00774 112.271 16.3969 109.635 25.579 108.163C34.6799 106.704 45.0609 106.304 53.7646 109.205C72.757 115.536 101.505 118.901 123.132 114.095L124.867 121.905C101.495 127.099 71.2424 123.464 51.2348 116.795C44.3385 114.496 35.4695 114.679 26.8454 116.062Z" fill="black"/>
<path fill-rule="evenodd" clip-rule="evenodd" d="M47 0H81.5V21H73.5V8H55V21H47V0Z" fill="black"/>
<path fill-rule="evenodd" clip-rule="evenodd" d="M44.5 57.025C18.6896 65.2723 0 89.4536 0 118C0 136.055 7.47663 154.864 19.5027 166.5H108.497C120.523 154.864 128 136.055 128 118C128 89.4536 109.31 65.2723 83.5 57.025V18H44.5V57.025ZM52.5 26V62.8672L46.935 64.6454C24.3431 71.8643 8 93.034 8 118C8 132.963 13.8214 148.387 22.8998 158.5H105.1C114.179 148.387 120 132.963 120 118C120 93.034 103.657 71.8643 81.065 64.6454L75.5 62.8672V26H52.5Z" fill="black"/>
<path fill-rule="evenodd" clip-rule="evenodd" d="M105.27 39C94.1331 39 85.5356 47.8802 83.9608 59.058L76.0391 57.942C78.0563 43.6227 89.3822 31 105.27 31C122.162 31 136 44.4322 136 61.177C136 74.5452 127.166 85.8112 115.027 89.8001L112.529 82.1999C121.572 79.2286 128 70.8971 128 61.177C128 49.0075 117.903 39 105.27 39Z" fill="black"/>
<path d="M35 17H92V25H35V17Z" fill="black"/>
</svg>
