<svg width="232" height="166" viewBox="0 0 232 166" fill="none" xmlns="http://www.w3.org/2000/svg">
<path fill-rule="evenodd" clip-rule="evenodd" d="M52.0823 48.1507L48.8449 43.6894L45.6074 48.1507L4.60744 104.651L0 111H7.84486H27.3449V148.5V152.5H31.3449H65.3449H69.3449V148.5V111H89.8449H97.6897L93.0823 104.651L52.0823 48.1507ZM69.3449 103H82L48.8449 57.3106L15.6897 103H27.3449H35.3449V144.5H61.3449V103H69.3449Z" fill="black"/>
<rect x="27.3447" y="158" width="42" height="8" fill="black"/>
<path fill-rule="evenodd" clip-rule="evenodd" d="M170.423 4.64309L167.239 0.276901L163.993 4.59744L106.147 81.5974L101.337 88H109.345H140.345V117V121H144.345H189.345H193.345V117V88H223.345H231.213L226.577 81.6431L170.423 4.64309ZM193.345 80H215.477L167.144 13.7231L117.353 80H140.345H148.345V113H185.345V80H192.857H193.345Z" fill="black"/>
<rect x="144.345" y="131" width="45" height="17" stroke="black" stroke-width="8"/>
<rect x="140.345" y="158" width="53" height="8" fill="black"/>
</svg>
