<svg width="172" height="160" viewBox="0 0 172 160" fill="none" xmlns="http://www.w3.org/2000/svg">
<path fill-rule="evenodd" clip-rule="evenodd" d="M30.5562 12L34.6421 132.945C35.1519 148.033 47.5302 160 62.6262 160H107.486C122.582 160 134.96 148.033 135.47 132.945L139.556 12H30.5562ZM38.831 20L42.6376 132.675C43.0017 143.452 51.8433 152 62.6262 152H107.486C118.269 152 127.111 143.452 127.475 132.675L131.281 20H38.831Z" fill="black"/>
<path fill-rule="evenodd" clip-rule="evenodd" d="M7.0626 13.874C1.59452 10.1689 -0.485927 5.15683 0.0938474 0.953461L8.01882 2.04656C7.93192 2.67653 8.10148 4.91441 11.5501 7.25107C15.0802 9.64298 21.9597 12 34.5563 12V20C21.153 20 12.4491 17.5237 7.0626 13.874ZM160.063 7.25107C163.511 4.91441 163.681 2.67653 163.594 2.04656L171.519 0.953461C172.099 5.15683 170.018 10.1689 164.55 13.874C159.163 17.5237 150.46 20 137.056 20V12C149.653 12 156.532 9.64298 160.063 7.25107Z" fill="black"/>
<path d="M65.5562 49C65.5562 52.3137 62.8699 55 59.5562 55C56.2424 55 53.5562 52.3137 53.5562 49C53.5562 45.6863 56.2424 43 59.5562 43C62.8699 43 65.5562 45.6863 65.5562 49Z" fill="black"/>
<path d="M117.556 49C117.556 52.3137 114.87 55 111.556 55C108.242 55 105.556 52.3137 105.556 49C105.556 45.6863 108.242 43 111.556 43C114.87 43 117.556 45.6863 117.556 49Z" fill="black"/>
<path d="M109.556 131.5C109.556 133.433 107.989 135 106.056 135C104.123 135 102.556 133.433 102.556 131.5C102.556 129.567 104.123 128 106.056 128C107.989 128 109.556 129.567 109.556 131.5Z" fill="black"/>
<path d="M67.5562 131.5C67.5562 133.433 65.9891 135 64.0562 135C62.1232 135 60.5562 133.433 60.5562 131.5C60.5562 129.567 62.1232 128 64.0562 128C65.9891 128 67.5562 129.567 67.5562 131.5Z" fill="black"/>
<path fill-rule="evenodd" clip-rule="evenodd" d="M131.077 117.216C91.1081 101.307 53.6521 110.659 40.294 117.103L36.8184 109.897C51.7936 102.674 91.6042 92.8935 134.036 109.784L131.077 117.216Z" fill="black"/>
</svg>
