<svg width="114" height="170" viewBox="0 0 114 170" fill="none" xmlns="http://www.w3.org/2000/svg">
<path fill-rule="evenodd" clip-rule="evenodd" d="M8.00317 20.1304C8.09106 19.9261 8.43266 19.33 9.58712 18.3723C11.471 16.8094 14.6774 15.0439 19.3436 13.4067C28.6027 10.1579 41.9159 8 57 8C72.0841 8 85.3973 10.1579 94.6564 13.4067C99.3226 15.0439 102.529 16.8094 104.413 18.3723C105.567 19.33 105.909 19.926 105.997 20.1304C105.964 20.7899 105.654 21.8658 103.859 23.4232C101.831 25.1825 98.456 27.0187 93.6299 28.6471C84.0334 31.885 70.7158 33.6363 57 33.6363C43.2842 33.6363 29.9666 31.885 20.3701 28.6471C15.544 27.0187 12.1689 25.1825 10.1412 23.4232C8.3461 21.8658 8.03572 20.7899 8.00317 20.1304ZM57 0C25.5198 0 0 8.9543 0 20V146C0 150.171 2.05478 153.782 5.09397 156.68C8.10964 159.555 12.2984 161.948 17.2462 163.871C27.1607 167.723 40.9371 170 57 170C73.0629 170 86.8393 167.723 96.7538 163.871C101.702 161.948 105.89 159.555 108.906 156.68C111.945 153.782 114 150.171 114 146V20C114 8.9543 88.4802 0 57 0ZM8 146C8 147.352 8.63519 149.002 10.6147 150.89C12.6178 152.8 15.7764 154.717 20.1436 156.414C28.8591 159.8 41.5826 162 57 162C72.4174 162 85.1409 159.8 93.8564 156.414C98.2236 154.717 101.382 152.8 103.385 150.89C105.365 149.002 106 147.352 106 146V31.7452C85.079 44.9333 28.921 44.9333 8 31.7452V146Z" fill="black"/>
<ellipse cx="72" cy="19.5" rx="19" ry="5.5" fill="black"/>
<circle cx="78" cy="71" r="14" stroke="black" stroke-width="8"/>
<circle cx="84.5" cy="118.5" r="10" stroke="black" stroke-width="7"/>
<circle cx="39.5" cy="104.5" r="22" stroke="black" stroke-width="7"/>
</svg>
