<svg width="24" height="24" viewBox="0 0 24 24" fill="none" xmlns="http://www.w3.org/2000/svg">
<circle cx="11.5" cy="11.5" r="7" stroke="#A63244"/>
<path d="M9.41357 9.44092C9.4279 8.757 9.66064 8.21273 10.1118 7.80811C10.5773 7.38916 11.2147 7.17969 12.0239 7.17969C12.7902 7.17969 13.4079 7.37305 13.877 7.75977C14.3424 8.14648 14.5752 8.65137 14.5752 9.27441C14.5752 10.0335 14.1921 10.6387 13.4258 11.0898C13.0677 11.2975 12.826 11.4837 12.7007 11.6484C12.5754 11.8132 12.5127 12.0244 12.5127 12.2822V12.5669H11.0894L11.0786 12.2715C11.0428 11.849 11.1019 11.4998 11.2559 11.2241C11.4062 10.9591 11.6694 10.7157 12.0454 10.4937C12.3963 10.286 12.6326 10.1016 12.7544 9.94043C12.8833 9.77572 12.9478 9.56982 12.9478 9.32275C12.9478 9.0721 12.8547 8.868 12.6685 8.71045C12.4787 8.54932 12.2316 8.46875 11.9272 8.46875C11.6193 8.46875 11.3704 8.55648 11.1807 8.73193C10.9909 8.90739 10.887 9.14372 10.8691 9.44092H9.41357ZM11.8574 15.1611C11.5566 15.1611 11.3185 15.0788 11.1431 14.9141C10.9676 14.7529 10.8799 14.5309 10.8799 14.248C10.8799 13.9652 10.9676 13.7414 11.1431 13.5767C11.3185 13.4119 11.5566 13.3296 11.8574 13.3296C12.1582 13.3296 12.3963 13.4119 12.5718 13.5767C12.7437 13.7414 12.8296 13.9652 12.8296 14.248C12.8296 14.5309 12.7437 14.7529 12.5718 14.9141C12.3963 15.0788 12.1582 15.1611 11.8574 15.1611Z" fill="#A63244"/>
</svg>
