<svg width="127" height="154" viewBox="0 0 127 154" fill="none" xmlns="http://www.w3.org/2000/svg">
<path fill-rule="evenodd" clip-rule="evenodd" d="M0 81.2363H126.625L126.301 85.5366C125.687 93.6905 123.161 106.215 117.506 117.581C112.286 128.074 104.112 138.114 91.8124 142.243V153.736H34.8124V142.243C22.5132 138.114 14.3391 128.074 9.1186 117.581C3.46408 106.215 0.937409 93.6905 0.323673 85.5366L0 81.2363ZM8.77246 89.2363C9.7725 96.3421 12.0888 105.59 16.2812 114.017C21.3977 124.302 28.9728 132.74 39.753 135.348L42.8124 136.089V145.736H83.8124V136.089L86.8718 135.348C97.652 132.74 105.227 124.302 110.344 114.017C114.536 105.59 116.852 96.3421 117.852 89.2363H8.77246Z" fill="black"/>
<path fill-rule="evenodd" clip-rule="evenodd" d="M31.0578 15.8827C31.4605 9.54644 32.8329 3.6161 34.0081 0L41.6164 2.47269C40.625 5.52326 39.3974 10.7929 39.0417 16.39C38.6798 22.0857 39.2622 27.5149 41.3294 31.3312C45.1336 38.3544 45.4511 46.6727 44.7924 53.2594C44.1366 59.8176 42.4247 65.4557 41.39 67.5252L34.2345 63.9475C34.6998 63.017 36.2379 58.4051 36.8321 52.4633C37.4234 46.55 36.9909 40.1183 34.2951 35.1415C31.1623 29.3578 30.6614 22.1203 31.0578 15.8827Z" fill="black"/>
<path fill-rule="evenodd" clip-rule="evenodd" d="M56.4294 15.8827C56.8321 9.54644 58.2045 3.6161 59.3797 0L66.988 2.47269C65.9966 5.52326 64.769 10.7929 64.4133 16.39C64.0514 22.0857 64.6338 27.5149 66.701 31.3312C70.5052 38.3544 70.8227 46.6727 70.164 53.2594C69.5082 59.8176 67.7963 65.4557 66.7616 67.5252L59.6061 63.9475C60.0714 63.017 61.6095 58.4051 62.2037 52.4633C62.795 46.55 62.3625 40.1183 59.6667 35.1415C56.5339 29.3578 56.033 22.1203 56.4294 15.8827Z" fill="black"/>
<path fill-rule="evenodd" clip-rule="evenodd" d="M82.4294 15.8827C82.8321 9.54644 84.2045 3.6161 85.3797 0L92.988 2.47269C91.9966 5.52326 90.769 10.7929 90.4133 16.39C90.0514 22.0857 90.6338 27.5149 92.701 31.3312C96.5052 38.3544 96.8227 46.6727 96.164 53.2594C95.5082 59.8176 93.7963 65.4557 92.7616 67.5252L85.6061 63.9475C86.0714 63.017 87.6095 58.4051 88.2037 52.4633C88.795 46.55 88.3625 40.1183 85.6667 35.1415C82.5339 29.3578 82.033 22.1203 82.4294 15.8827Z" fill="black"/>
</svg>
