<svg width="131" height="155" viewBox="0 0 131 155" fill="none" xmlns="http://www.w3.org/2000/svg">
<path fill-rule="evenodd" clip-rule="evenodd" d="M41.0001 8C43.5482 8 46.2929 9.50197 48.8813 15.9514C51.4147 22.2637 52.6287 30.8643 53.0886 39.0366C53.4107 44.7597 48.6062 50 41.5662 50H40.4339C33.394 50 28.5895 44.7597 28.9115 39.0366C29.3714 30.8643 30.5855 22.2637 33.1189 15.9514C35.7073 9.50197 38.4519 8 41.0001 8ZM37 57.7191C28.751 56.3549 22.1453 50.1533 21.0534 42.0175C12.8938 51.9455 8 64.6494 8 78.5C8 99.8861 19.6754 118.545 37 128.451V57.7191ZM41.0001 0C28.5071 0 23.5546 15.0809 21.7009 29.8627L21.6683 29.8266C8.36968 41.8096 0 59.1801 0 78.5C0 104.46 15.1021 126.892 37 137.491V155H45V140.728C51.4488 142.851 58.3403 144 65.5 144C73.0311 144 80.2654 142.729 87 140.39V155H95V136.997C116.356 126.205 131 104.063 131 78.5C131 58.0728 121.645 39.8284 107 27.8222V0H99V44H95V0H87V44H83V0H75V13.6844C71.8968 13.2333 68.7246 13 65.5 13C62.4675 13 59.481 13.2064 56.5543 13.6063C53.5439 5.7389 48.7067 0 41.0001 0ZM75 21.7805C71.9118 21.2673 68.7385 21 65.5 21C63.2485 21 61.0288 21.1292 58.8475 21.3803C60.1124 27.0149 60.7651 33.0625 61.076 38.5871C61.6266 48.3713 54.3743 56.1689 45 57.7192V132.238C51.3677 134.669 58.2784 136 65.5 136C73.1014 136 80.3582 134.525 87 131.846V57.8582C80.2154 56.8878 75 51.0529 75 44V21.7805ZM95 127.866C111.772 117.822 123 99.472 123 78.5C123 63.0555 116.914 49.0341 107 38.7001V44V45.2C107 52.0006 101.697 57.5624 95 57.9754V127.866Z" fill="black"/>
</svg>
