<svg width="127" height="170" viewBox="0 0 127 170" fill="none" xmlns="http://www.w3.org/2000/svg">
<rect x="4" y="65" width="119" height="101" stroke="black" stroke-width="8"/>
<path d="M61.316 140.592C61.315 140.593 61.3139 140.593 61.3128 140.594C61.3284 140.585 61.3369 140.581 61.337 140.582C61.3371 140.582 61.3304 140.585 61.316 140.592ZM61.1331 138.412C60.994 139.437 60.8251 140.24 60.6653 140.805C60.0982 140.956 59.2928 141.113 58.2659 141.237C56.0167 141.508 52.9931 141.586 49.6505 141.243C42.8772 140.549 35.4421 138.205 30.3291 133.015C25.1542 127.763 22.7402 120.44 22.0515 113.834C21.7102 110.56 21.8102 107.607 22.1431 105.381C22.3101 104.264 22.5246 103.405 22.7321 102.816C22.7877 102.658 22.8365 102.538 22.8757 102.449C22.9655 102.411 23.0868 102.364 23.2453 102.311C23.8372 102.112 24.6989 101.91 25.8182 101.76C28.0496 101.46 31.0036 101.404 34.272 101.794C40.8671 102.581 48.1531 105.104 53.3279 110.356C58.4409 115.546 60.6741 123.015 61.2675 129.798C61.5603 133.145 61.4376 136.167 61.1331 138.412ZM60.4443 141.449C60.4438 141.45 60.4433 141.451 60.4428 141.452C60.4283 141.483 60.4279 141.479 60.4443 141.449Z" stroke="black" stroke-width="8"/>
<path d="M66.6669 140.592C66.6679 140.593 66.669 140.593 66.6701 140.594C66.6545 140.585 66.6461 140.581 66.6459 140.582C66.6458 140.582 66.6525 140.585 66.6669 140.592ZM66.8498 138.412C66.9889 139.437 67.1578 140.24 67.3176 140.805C67.8847 140.956 68.6901 141.113 69.7171 141.237C71.9662 141.508 74.9899 141.586 78.3324 141.243C85.1057 140.549 92.5408 138.205 97.6539 133.015C102.829 127.763 105.243 120.44 105.931 113.834C106.273 110.56 106.173 107.607 105.84 105.381C105.673 104.264 105.458 103.405 105.251 102.816C105.195 102.658 105.146 102.538 105.107 102.449C105.017 102.411 104.896 102.364 104.738 102.311C104.146 102.112 103.284 101.91 102.165 101.76C99.9333 101.46 96.9793 101.404 93.7109 101.794C87.1158 102.581 79.8298 105.104 74.655 110.356C69.542 115.546 67.3088 123.015 66.7154 129.798C66.4227 133.145 66.5453 136.167 66.8498 138.412ZM67.5386 141.449C67.5391 141.45 67.5396 141.451 67.5401 141.452C67.5546 141.483 67.555 141.479 67.5386 141.449Z" stroke="black" stroke-width="8"/>
<path d="M64.7194 141.1C64.7171 141.099 64.7143 141.098 64.711 141.097C64.7413 141.107 64.7452 141.11 64.7194 141.1ZM65.8555 139.304C65.1137 139.926 64.4853 140.386 64 140.697C63.5147 140.386 62.8863 139.926 62.1445 139.304C60.3627 137.808 58.1621 135.573 56.0255 132.765C51.7115 127.098 48 119.56 48 111.5C48 103.357 51.4719 95.7966 55.6023 90.1824C57.6551 87.3921 59.7926 85.1917 61.5818 83.7317C62.4801 82.9988 63.2264 82.505 63.7735 82.215C63.86 82.1692 63.9354 82.1317 64 82.1012C64.0646 82.1317 64.14 82.1692 64.2265 82.215C64.7736 82.505 65.5199 82.9988 66.4182 83.7317C68.2074 85.1917 70.3449 87.3921 72.3977 90.1824C76.5281 95.7966 80 103.357 80 111.5C80 119.56 76.2885 127.098 71.9745 132.765C69.8379 135.573 67.6373 137.808 65.8555 139.304ZM63.289 141.097C63.2857 141.098 63.2829 141.099 63.2806 141.1C63.2548 141.11 63.2587 141.107 63.289 141.097Z" stroke="black" stroke-width="8"/>
<path d="M51.3672 48L43.7518 4H84.2482L76.6328 48H51.3672Z" stroke="black" stroke-width="8"/>
</svg>
