<svg width="153" height="127" viewBox="0 0 153 127" fill="none" xmlns="http://www.w3.org/2000/svg">
<path fill-rule="evenodd" clip-rule="evenodd" d="M46.5 119C67.6825 119 85 101.62 85 80C85 58.38 67.6825 41 46.5 41C25.3175 41 8 58.38 8 80C8 101.62 25.3175 119 46.5 119ZM46.5 127C72.1812 127 93 105.957 93 80C93 54.0426 72.1812 33 46.5 33C20.8188 33 0 54.0426 0 80C0 105.957 20.8188 127 46.5 127Z" fill="black"/>
<path fill-rule="evenodd" clip-rule="evenodd" d="M55 21H40V33H55V21ZM32 13V41H63V13H32Z" fill="black"/>
<path d="M32 0H63V8H32V0Z" fill="black"/>
<path d="M91 0H118V8H91V0Z" fill="black"/>
<path fill-rule="evenodd" clip-rule="evenodd" d="M63.9361 111.253L63.812 111.443C61.7472 114.601 63.9445 119 68.0568 119H139.943C144.055 119 146.253 114.601 144.188 111.443L144.05 111.231L109.537 50.3833V22L98.9646 22V50.4109L63.9361 111.253ZM90.9646 14L117.537 14V48.2725L150.884 107.065C156.502 115.657 150.277 127 139.943 127H68.0568C57.7233 127 51.4983 115.657 57.1162 107.065L90.9646 48.2725V14Z" fill="black"/>
</svg>
