<svg width="134" height="157" viewBox="0 0 134 157" fill="none" xmlns="http://www.w3.org/2000/svg">
<path fill-rule="evenodd" clip-rule="evenodd" d="M43.4252 85.8617C26.5178 85.8617 13.2646 98.6399 13.2646 113.862C13.2646 129.084 26.5178 141.862 43.4252 141.862C50.6296 141.862 57.2119 139.521 62.3737 135.645L67.1775 142.042C60.6428 146.949 52.3779 149.862 43.4252 149.862C22.5999 149.862 5.26465 133.986 5.26465 113.862C5.26465 93.7373 22.5999 77.8617 43.4252 77.8617C58.4829 77.8617 71.6273 86.109 77.8278 98.2632L70.7015 101.899C65.9079 92.5022 55.566 85.8617 43.4252 85.8617Z" fill="black"/>
<path fill-rule="evenodd" clip-rule="evenodd" d="M94.2646 148.862C110.281 148.862 122.265 136.912 122.265 123.362C122.265 109.811 110.281 97.8617 94.2646 97.8617C78.2487 97.8617 66.2646 109.811 66.2646 123.362C66.2646 136.912 78.2487 148.862 94.2646 148.862ZM94.2646 156.862C114.147 156.862 130.265 141.863 130.265 123.362C130.265 104.86 114.147 89.8617 94.2646 89.8617C74.3824 89.8617 58.2646 104.86 58.2646 123.362C58.2646 141.863 74.3824 156.862 94.2646 156.862Z" fill="black"/>
<path fill-rule="evenodd" clip-rule="evenodd" d="M91.1636 17.8162C90.6587 14.2578 88.9811 8.9305 85.2003 4.99173C83.1332 2.83828 80.4021 1.07193 76.934 0.349007C73.479 -0.371195 69.6075 0.00927329 65.349 1.62056C60.1125 3.60197 54.4618 7.42892 48.8962 12.0283C43.2783 16.671 37.5124 22.2992 32.0379 28.1217C21.0896 39.7661 11.1114 52.3975 5.53899 59.9962L0 67.5494L9.28643 66.3275C11.4897 66.0376 14.7037 65.7741 18.5947 65.4551C30.2427 64.5001 47.9571 63.0478 62.7797 58.9013C72.697 56.127 82.2239 51.9446 88.0703 45.2307C91.064 41.7928 93.094 37.6867 93.6672 32.8727C94.2185 28.2427 93.3916 23.223 91.1636 17.8162ZM75.3015 8.18067C73.6294 7.83212 71.3218 7.91415 68.1802 9.10285C64.1668 10.6214 59.3174 13.7945 53.9924 18.1951C48.7197 22.5524 43.2044 27.9242 37.8663 33.6017C30.1679 41.7895 22.9401 50.504 17.472 57.5034C17.9352 57.4652 18.4065 57.4265 18.8853 57.3872C30.52 56.4323 46.6388 55.1095 60.6245 51.1971C70.1447 48.5339 77.7741 44.8726 82.0371 39.9771C84.0981 37.6103 85.361 34.9703 85.7233 31.9269C86.0898 28.8489 85.5674 25.0748 83.5857 20.432L83.3542 19.8896L83.2891 19.3034C83.0153 16.8396 81.811 13.0132 79.4289 10.5317C78.3044 9.36014 76.9605 8.52649 75.3015 8.18067Z" fill="black"/>
<path fill-rule="evenodd" clip-rule="evenodd" d="M93.2239 28.9599C91.0444 29.7047 87.9769 31.3326 85.9122 34.146C84.7261 35.7624 83.8512 37.8079 83.7718 40.2355C83.6927 42.6498 84.4103 45.1208 85.8727 47.591C87.6535 50.5992 90.5447 53.5642 93.7491 56.3038C97.0049 59.0876 100.824 61.839 104.697 64.3863C112.441 69.4805 120.641 73.9153 125.54 76.3424L133.933 80.5004L131.133 71.5623C130.783 70.4461 130.341 68.7457 129.798 66.6561C128.111 60.1722 125.45 49.9409 121.555 41.7863C118.967 36.3666 115.479 31.0077 110.661 28.096C108.161 26.5845 105.3 25.7338 102.14 25.9055C99.1708 26.0668 96.1929 27.1154 93.2239 28.9599ZM91.7675 40.4973C91.748 41.0913 91.9028 42.073 92.7568 43.5157C93.8715 45.3985 95.9807 47.6865 98.9478 50.2233C101.863 52.7161 105.387 55.2647 109.093 57.7026C113.136 60.3621 117.326 62.8431 121.058 64.9255C119.459 58.8852 117.364 51.5746 114.336 45.2339C111.925 40.1863 109.277 36.6071 106.523 34.9425C105.238 34.1658 103.954 33.8187 102.574 33.8937C101.159 33.9706 99.3574 34.5083 97.1116 35.9675L96.6171 36.2888L96.0509 36.4538C94.9033 36.788 93.2373 37.6861 92.3619 38.8791C91.981 39.3982 91.7865 39.9166 91.7675 40.4973Z" fill="black"/>
<path fill-rule="evenodd" clip-rule="evenodd" d="M99.1346 19.1084C103.053 15.986 106.947 13.5951 109.424 12.3107L113.106 19.4127C111.083 20.4617 107.627 22.5707 104.12 25.365C100.584 28.1831 97.2457 31.5015 95.1949 34.9197L88.3349 30.8037C91.084 26.2218 95.2462 22.2069 99.1346 19.1084ZM48.1113 34.4909C63.1579 24.8778 81.0468 20.7733 88.2807 19.8911L89.2491 27.8323C82.8163 28.6168 66.1718 32.4456 52.4184 41.2325L48.1113 34.4909Z" fill="black"/>
<path fill-rule="evenodd" clip-rule="evenodd" d="M84.2914 74.4555C83.9409 62.6661 85.1152 52.2129 86.3423 46.0772L94.1869 47.6461C93.0808 53.1771 91.955 63.0239 92.2879 74.2178C92.6212 85.4292 94.4105 97.7143 98.9412 108.286L91.588 111.437C86.5188 99.6091 84.6414 86.2275 84.2914 74.4555Z" fill="black"/>
<path fill-rule="evenodd" clip-rule="evenodd" d="M51.49 71.9908C54.8391 63.8439 58.72 56.3345 61.2998 51.8628L68.2293 55.8606C65.8092 60.0555 62.0901 67.2461 58.8892 75.0325C55.6498 82.9125 53.117 90.9878 52.7577 97.0966L44.7715 96.6268C45.2121 89.1355 48.1793 80.0442 51.49 71.9908Z" fill="black"/>
</svg>
