<svg width="202" height="148" viewBox="0 0 202 148" fill="none" xmlns="http://www.w3.org/2000/svg">
<path fill-rule="evenodd" clip-rule="evenodd" d="M117.131 16.9486C140.418 13.366 155.527 17.0997 164.768 26.9387C173.766 36.5194 176.134 50.8766 176.736 65.74C177.532 85.3727 169.348 105.721 158.645 121.065C153.272 128.769 147.156 135.372 141.002 140.092C134.948 144.734 128.4 147.902 122.24 147.902C112.182 147.902 107.042 146.742 103.638 145.456C102.814 145.145 102.131 144.841 101.581 144.592L101.371 144.497L101.37 144.496C100.908 144.287 100.622 144.157 100.343 144.049C99.9126 143.884 99.6672 143.829 99.1376 143.882L98.9895 142.402L98.8415 143.882C98.3119 143.829 98.0665 143.884 97.6364 144.05C97.357 144.157 97.0703 144.287 96.6076 144.497L96.3985 144.592C95.848 144.841 95.1655 145.145 94.3406 145.456C90.9372 146.742 85.7972 147.902 75.7395 147.902C69.5807 147.902 63.2764 144.833 57.5487 140.284C51.7466 135.676 46.1246 129.23 41.2555 121.699C31.5422 106.676 24.452 86.7469 25.2428 67.24C25.8918 51.2321 32.7685 40.5001 41.2597 33.7359C49.6085 27.0852 59.3648 24.3763 65.9585 23.912L66.5205 31.8922C61.2809 32.2612 53.1372 34.5023 46.2443 39.9932C39.4939 45.3707 33.7873 53.9721 33.2362 67.5641C32.5271 85.0573 38.9369 103.379 47.9736 117.355C52.4794 124.324 57.545 130.065 62.5241 134.02C67.5776 138.033 72.1484 139.902 75.7395 139.902C85.1819 139.902 89.2919 138.812 91.5134 137.973C92.0949 137.753 92.592 137.533 93.0982 137.304L93.2861 137.219C93.7213 137.021 94.2467 136.782 94.7646 136.583C96.0052 136.106 97.3298 135.8 98.9894 135.875C100.649 135.8 101.974 136.106 103.215 136.583C103.732 136.782 104.258 137.021 104.693 137.219L104.881 137.304C105.387 137.533 105.884 137.753 106.466 137.973C108.687 138.812 112.797 139.902 122.24 139.902C125.829 139.902 130.656 137.945 136.133 133.744C141.511 129.619 147.082 123.66 152.084 116.489C162.131 102.083 169.447 83.4315 168.743 66.0641C168.145 51.3275 165.763 39.6847 158.936 32.4154C152.352 25.4044 140.561 21.4381 118.348 24.8555L117.131 16.9486Z" fill="black"/>
<path fill-rule="evenodd" clip-rule="evenodd" d="M86.9544 16.8701C84.8736 11.9405 82.3299 6.78108 80.7207 3.80414L87.7584 0C89.4825 3.18972 92.1388 8.58027 94.3247 13.7591C95.4167 16.3462 96.4213 18.9508 97.1338 21.2399C97.7838 23.3282 98.4032 25.7831 98.2231 27.7642L90.256 27.0399C90.2557 27.0432 90.2555 27.0449 90.2555 27.0449C90.2553 27.0449 90.2592 26.971 90.2447 26.8042C90.2287 26.6195 90.1945 26.3701 90.1331 26.0498C90.0091 25.4036 89.7975 24.5884 89.4953 23.6174C88.8911 21.6762 87.9957 19.3371 86.9544 16.8701Z" fill="black"/>
<path fill-rule="evenodd" clip-rule="evenodd" d="M140.473 79.0246C124.654 81.6114 107.064 83.5492 96.044 84.3905L95.4351 76.4137C106.248 75.5883 123.609 73.6761 139.181 71.1295C146.974 69.8553 154.239 68.435 159.982 66.9323C162.856 66.1802 165.277 65.426 167.16 64.6862C169.137 63.9094 170.171 63.2803 170.572 62.9211L175.907 68.883C174.408 70.2239 172.277 71.2708 170.086 72.132C167.8 73.0302 165.048 73.876 162.007 74.6718C155.918 76.265 148.376 77.7322 140.473 79.0246Z" fill="black"/>
<path fill-rule="evenodd" clip-rule="evenodd" d="M75.1256 111.874C62.4729 112.384 48.6682 112.734 39.815 112.901L39.6641 104.903C48.4775 104.736 62.2228 104.387 74.8035 103.88C87.5611 103.366 98.6551 102.703 102.491 101.973L103.988 109.831C99.4239 110.701 87.6012 111.371 75.1256 111.874Z" fill="black"/>
<path fill-rule="evenodd" clip-rule="evenodd" d="M26.8487 94.8792C27.9221 94.2657 28.9312 93.6226 29.8292 92.9541C31.4467 91.7498 33.4872 89.9035 34.12 87.3722L26.3589 85.4319C26.3784 85.354 26.3934 85.3147 26.389 85.3124C26.374 85.3045 26.1301 85.7344 25.0518 86.5372C23.8446 87.4359 22.1181 88.4165 20.02 89.4155C15.0127 91.7995 8.70553 93.9072 4.65163 95.0528L0 96.3674L14.4313 125.23L17.9893 123.499C21.1184 121.977 25.9153 119.541 30.1555 117.168C32.2699 115.984 34.3021 114.785 35.9367 113.703C36.7517 113.163 37.5201 112.619 38.1706 112.091C38.7457 111.625 39.5164 110.948 40.0677 110.121L33.4113 105.683C33.4705 105.594 33.51 105.549 33.5091 105.548C33.5076 105.546 33.4084 105.653 33.1337 105.876C32.7575 106.181 32.2205 106.569 31.5203 107.032C30.1248 107.956 28.2881 109.045 26.2484 110.187C23.5532 111.695 20.6012 113.242 18.0324 114.544L11.4311 101.341C13.9959 100.5 16.8523 99.4761 19.622 98.3339L21.5488 102.944L28.9301 99.8597L26.8487 94.8792Z" fill="black"/>
<path fill-rule="evenodd" clip-rule="evenodd" d="M174.63 94.8792C173.557 94.2657 172.548 93.6226 171.65 92.9541C170.032 91.7498 167.992 89.9035 167.359 87.3722L175.12 85.4319C175.101 85.354 175.086 85.3147 175.09 85.3124C175.105 85.3045 175.349 85.7344 176.427 86.5372C177.634 87.4359 179.361 88.4165 181.459 89.4155C186.466 91.7995 192.773 93.9072 196.827 95.0528L201.479 96.3674L187.048 125.23L183.49 123.499C180.361 121.977 175.564 119.541 171.323 117.168C169.209 115.984 167.177 114.785 165.542 113.703C164.727 113.163 163.959 112.619 163.308 112.091C162.733 111.625 161.963 110.948 161.411 110.121L168.068 105.683C168.009 105.594 167.969 105.549 167.97 105.548C167.971 105.546 168.071 105.653 168.345 105.876C168.721 106.181 169.259 106.569 169.959 107.032C171.354 107.956 173.191 109.045 175.231 110.187C177.926 111.695 180.878 113.242 183.447 114.544L190.048 101.341C187.483 100.5 184.627 99.4761 181.857 98.3339L179.93 102.944L172.549 99.8597L174.63 94.8792Z" fill="black"/>
<path fill-rule="evenodd" clip-rule="evenodd" d="M41.3333 67.0491C36.9763 65.4614 33.0763 63.9612 29.7383 62.6097L32.7408 55.1945C36.8443 56.856 41.8598 58.7637 47.5775 60.7931C52.5546 62.5596 58.0576 64.4163 63.9471 66.2813C69.139 67.9254 74.629 69.5753 80.3218 71.1754C86.2555 72.8431 92.407 74.456 98.6686 75.9513C104.058 77.2384 109.528 78.4378 115.007 79.5098C120.456 80.5757 125.911 81.515 131.308 82.2894C136.811 83.0791 142.246 83.6965 147.545 84.102C155.244 84.6913 162.629 84.8311 169.494 84.4096L169.985 92.3946C163.997 92.7622 157.705 92.7253 151.24 92.3642V96.4021H143.24V91.7652C140.428 91.5038 137.592 91.189 134.74 90.8266V96.4021H126.74V89.6956C123.7 89.224 120.652 88.705 117.605 88.1453L116.699 94.4695L108.78 93.3346L109.743 86.6123C106.801 86.0066 103.87 85.3678 100.958 84.702L99.681 92.084L91.7981 90.7202L93.1605 82.845C89.5367 81.9483 85.9589 81.0169 82.4476 80.0628L81.184 87.5663L73.2951 86.2378L74.7005 77.8925C71.5861 76.994 68.5396 76.0838 65.5768 75.1713L63.6163 82.8871L55.8627 80.9171L57.9364 72.7554C54.7897 71.7343 51.7649 70.7202 48.8842 69.7261L46.5754 77.5361L38.9036 75.2681L41.3333 67.0491Z" fill="black"/>
<path fill-rule="evenodd" clip-rule="evenodd" d="M160.485 113.395C114.069 116.245 54.7106 100.233 27.2383 89.1097L30.2408 81.6945C57.1017 92.5707 115.21 108.16 159.994 105.41L160.485 113.395Z" fill="black"/>
</svg>
