<svg width="174" height="153" viewBox="0 0 174 153" fill="none" xmlns="http://www.w3.org/2000/svg">
<path fill-rule="evenodd" clip-rule="evenodd" d="M22 36C29.732 36 36 29.732 36 22C36 14.268 29.732 8 22 8C14.268 8 8 14.268 8 22C8 29.732 14.268 36 22 36ZM22 44C34.1503 44 44 34.1503 44 22C44 9.84974 34.1503 0 22 0C9.84974 0 0 9.84974 0 22C0 34.1503 9.84974 44 22 44Z" fill="black"/>
<path fill-rule="evenodd" clip-rule="evenodd" d="M152 36C159.732 36 166 29.732 166 22C166 14.268 159.732 8 152 8C144.268 8 138 14.268 138 22C138 29.732 144.268 36 152 36ZM152 44C164.15 44 174 34.1503 174 22C174 9.84974 164.15 0 152 0C139.85 0 130 9.84974 130 22C130 34.1503 139.85 44 152 44Z" fill="black"/>
<path fill-rule="evenodd" clip-rule="evenodd" d="M87 145C94.732 145 101 138.732 101 131C101 123.268 94.732 117 87 117C79.268 117 73 123.268 73 131C73 138.732 79.268 145 87 145ZM87 153C99.1503 153 109 143.15 109 131C109 118.85 99.1503 109 87 109C74.8497 109 65 118.85 65 131C65 143.15 74.8497 153 87 153Z" fill="black"/>
<path fill-rule="evenodd" clip-rule="evenodd" d="M90.5001 70.5776L139.3 36.2724L134.7 29.7276L86.5233 63.5943L39.3313 29.7495L34.6689 36.2505L82.5001 70.5536V112H90.5001V70.5776Z" fill="black"/>
</svg>
