<svg width="162" height="161" viewBox="0 0 162 161" fill="none" xmlns="http://www.w3.org/2000/svg">
<path fill-rule="evenodd" clip-rule="evenodd" d="M8 80.5C8 120.541 40.4594 153 80.5 153C87.9155 153 94.1347 151.648 98.9785 148.942C103.669 146.322 107.528 142.188 110.026 135.646C110.659 133.989 111.132 131.572 111.464 128.276C111.724 125.691 111.865 122.98 112.017 120.047C112.058 119.264 112.099 118.464 112.144 117.647C112.347 113.942 112.619 109.897 113.268 106.174C113.899 102.556 115.017 98.3941 117.439 94.9232C120.932 89.9143 125.966 86.9821 130.387 84.9734C132.957 83.8061 136.219 82.603 139.059 81.5555C140.622 80.9788 142.058 80.4493 143.18 79.9989C147.081 78.4326 149.623 77.0102 151.219 75.3891C152.503 74.086 153.5 72.3441 153.5 69C153.5 49.2038 145.473 34.2598 132.691 24.0876C119.715 13.7615 101.347 8 80.5 8C40.4594 8 8 40.4594 8 80.5ZM141.225 89.2881C151.338 85.5826 161.5 81.8595 161.5 69C161.5 24.5411 124.959 0 80.5 0C36.0411 0 0 36.0411 0 80.5C0 124.959 36.0411 161 80.5 161C97.1349 161 111.211 154.97 117.5 138.5C119.32 133.735 119.666 127.034 120.012 120.358C120.436 112.163 120.859 104.004 124 99.5C127.655 94.2598 134.429 91.7779 141.225 89.2881Z" fill="black"/>
<path fill-rule="evenodd" clip-rule="evenodd" d="M121.5 70C129.508 70 136 63.5081 136 55.5C136 47.4919 129.508 41 121.5 41C113.492 41 107 47.4919 107 55.5C107 63.5081 113.492 70 121.5 70ZM121.5 78C133.926 78 144 67.9264 144 55.5C144 43.0736 133.926 33 121.5 33C109.074 33 99 43.0736 99 55.5C99 67.9264 109.074 78 121.5 78Z" fill="black"/>
<path fill-rule="evenodd" clip-rule="evenodd" d="M69.5 50C74.7467 50 79 45.7467 79 40.5C79 35.2533 74.7467 31 69.5 31C64.2533 31 60 35.2533 60 40.5C60 45.7467 64.2533 50 69.5 50ZM69.5 58C79.165 58 87 50.165 87 40.5C87 30.835 79.165 23 69.5 23C59.835 23 52 30.835 52 40.5C52 50.165 59.835 58 69.5 58Z" fill="black"/>
<path fill-rule="evenodd" clip-rule="evenodd" d="M36.5 76C39.5376 76 42 73.5376 42 70.5C42 67.4624 39.5376 65 36.5 65C33.4624 65 31 67.4624 31 70.5C31 73.5376 33.4624 76 36.5 76ZM36.5 84C43.9558 84 50 77.9558 50 70.5C50 63.0442 43.9558 57 36.5 57C29.0442 57 23 63.0442 23 70.5C23 77.9558 29.0442 84 36.5 84Z" fill="black"/>
<path fill-rule="evenodd" clip-rule="evenodd" d="M41.5 111C42.8807 111 44 109.881 44 108.5C44 107.119 42.8807 106 41.5 106C40.1193 106 39 107.119 39 108.5C39 109.881 40.1193 111 41.5 111ZM41.5 119C47.299 119 52 114.299 52 108.5C52 102.701 47.299 98 41.5 98C35.701 98 31 102.701 31 108.5C31 114.299 35.701 119 41.5 119Z" fill="black"/>
<path fill-rule="evenodd" clip-rule="evenodd" d="M84.5 135C88.6421 135 92 131.642 92 127.5C92 123.358 88.6421 120 84.5 120C80.3579 120 77 123.358 77 127.5C77 131.642 80.3579 135 84.5 135ZM84.5 143C93.0604 143 100 136.06 100 127.5C100 118.94 93.0604 112 84.5 112C75.9396 112 69 118.94 69 127.5C69 136.06 75.9396 143 84.5 143Z" fill="black"/>
</svg>
