<svg width="212" height="140" viewBox="0 0 212 140" fill="none" xmlns="http://www.w3.org/2000/svg">
<path fill-rule="evenodd" clip-rule="evenodd" d="M105.521 0L108.103 2.18184C114.145 7.28794 123.146 15.749 130.575 24.6184C134.287 29.0494 137.692 33.6834 140.137 38.128C141.443 40.5026 142.563 42.9789 143.265 45.4485C152.051 41.7924 161.695 38.7915 170.973 37.0553C181.909 35.0087 192.832 34.6242 201.286 37.4423C207.154 39.3983 209.76 44.9842 210.639 50.6821C211.534 56.488 210.887 63.5845 209.233 70.8163C205.934 85.2439 198.284 101.631 188.35 111.565C177.187 122.729 151.443 144.767 105.521 138.772C59.5998 144.767 33.856 122.729 22.6929 111.565C12.7584 101.631 5.10908 85.2439 1.80949 70.8163C0.155599 63.5845 -0.491275 56.488 0.403984 50.6821C1.28259 44.9842 3.88846 39.3983 9.75641 37.4423C18.2108 34.6242 29.1332 35.0087 40.0696 37.0553C49.3475 38.7915 58.992 41.7924 67.778 45.4485C68.4792 42.9789 69.5994 40.5026 70.9056 38.128C73.3503 33.6834 76.7558 29.0494 80.4675 24.6184C87.8971 15.749 96.8973 7.28794 102.939 2.18184L105.521 0ZM77.9152 41.9836C75.7543 45.9121 74.8855 48.9393 75.0135 50.9875L75.4317 57.6781L69.3451 54.8688C59.8625 50.4923 48.9275 46.8518 38.5981 44.9188C28.1594 42.9653 18.8319 42.8499 12.2862 45.0317C10.6542 45.5758 9.01006 47.3648 8.31054 51.9013C7.62767 56.3298 8.07454 62.327 9.60815 69.0327C12.6835 82.4801 19.7842 97.3431 28.3497 105.909C38.6957 116.255 62.2432 136.536 104.987 130.773L105.521 130.701L106.056 130.773C148.799 136.536 172.347 116.255 182.693 105.909C191.258 97.3431 198.359 82.4801 201.434 69.0327C202.968 62.327 203.415 56.3298 202.732 51.9013C202.033 47.3648 200.388 45.5758 198.756 45.0317C192.211 42.8499 182.883 42.9653 172.445 44.9188C162.115 46.8518 151.18 50.4923 141.698 54.8688L135.611 57.6781L136.029 50.9875C136.157 48.9393 135.288 45.9121 133.127 41.9836C131.027 38.1656 127.977 33.9746 124.442 29.7556C118.367 22.5025 111.116 15.4654 105.521 10.5247C99.9267 15.4654 92.6758 22.5025 86.6002 29.7556C83.066 33.9746 80.0152 38.1656 77.9152 41.9836Z" fill="black"/>
<path fill-rule="evenodd" clip-rule="evenodd" d="M105.932 138.693C36.3821 128.344 10.2234 70.2046 6.06641 42.8377L13.9757 41.6363C17.8187 66.9361 42.26 121.13 107.11 130.781L105.932 138.693Z" fill="black"/>
<path fill-rule="evenodd" clip-rule="evenodd" d="M103.11 138.693C172.66 128.344 198.819 70.2046 202.976 42.8377L195.067 41.6363C191.224 66.9361 166.782 121.13 101.933 130.781L103.11 138.693Z" fill="black"/>
<path fill-rule="evenodd" clip-rule="evenodd" d="M105.521 51.5089L123.357 86.1002L149.12 65.8583L141.941 101.037L134.102 99.4372L136.923 85.6157L120.685 98.3738L105.521 68.9651L90.3575 98.3738L74.1199 85.6157L76.9406 99.4372L69.1021 101.037L61.9229 65.8583L87.6852 86.1002L105.521 51.5089Z" fill="black"/>
</svg>
