<svg width="168" height="160" viewBox="0 0 168 160" fill="none" xmlns="http://www.w3.org/2000/svg">
<path fill-rule="evenodd" clip-rule="evenodd" d="M84.5 95C108.524 95 128 75.5244 128 51.5C128 27.4756 108.524 8 84.5 8C60.4756 8 41 27.4756 41 51.5C41 75.5244 60.4756 95 84.5 95ZM84.5 103C112.943 103 136 79.9427 136 51.5C136 23.0573 112.943 0 84.5 0C56.0573 0 33 23.0573 33 51.5C33 79.9427 56.0573 103 84.5 103Z" fill="black"/>
<path fill-rule="evenodd" clip-rule="evenodd" d="M116.5 152C140.524 152 160 132.524 160 108.5C160 84.4756 140.524 65 116.5 65C92.4756 65 73 84.4756 73 108.5C73 132.524 92.4756 152 116.5 152ZM116.5 160C144.943 160 168 136.943 168 108.5C168 80.0573 144.943 57 116.5 57C88.0573 57 65 80.0573 65 108.5C65 136.943 88.0573 160 116.5 160Z" fill="black"/>
<path fill-rule="evenodd" clip-rule="evenodd" d="M51.5 152C75.5244 152 95 132.524 95 108.5C95 84.4756 75.5244 65 51.5 65C27.4756 65 8 84.4756 8 108.5C8 132.524 27.4756 152 51.5 152ZM51.5 160C79.9427 160 103 136.943 103 108.5C103 80.0573 79.9427 57 51.5 57C23.0573 57 0 80.0573 0 108.5C0 136.943 23.0573 160 51.5 160Z" fill="black"/>
</svg>
