<svg width="175" height="138" viewBox="0 0 175 138" fill="none" xmlns="http://www.w3.org/2000/svg">
<path fill-rule="evenodd" clip-rule="evenodd" d="M25.0759 8L10.618 99H164.788L149.48 8H25.0759ZM156.247 0H18.2466L1.24658 107H174.247L156.247 0Z" fill="black"/>
<path fill-rule="evenodd" clip-rule="evenodd" d="M9.47564 107L8.85738 110.556C7.85028 116.348 7.72962 122.259 8.49954 128.087L8.7522 130H164.379L163.823 127.369C162.619 121.675 162.943 115.764 164.761 110.236L165.825 107H9.47564ZM174.247 107L172.361 112.735C170.983 116.923 170.738 121.401 171.65 125.715L174.247 138H1.73951L0.568445 129.135C-0.307673 122.503 -0.170372 115.776 0.975642 109.185L2.74663 99H172.747L174.247 107Z" fill="black"/>
<path fill-rule="evenodd" clip-rule="evenodd" d="M80.3524 24H93.2073L118.817 74.6964L111.676 78.3036L104.703 64.5H67.7181L60.272 78.3899L53.2212 74.6101L80.3524 24ZM72.0067 56.5H100.662L88.2858 32H85.1408L72.0067 56.5Z" fill="black"/>
</svg>
