<svg width="131" height="132" viewBox="0 0 131 132" fill="none" xmlns="http://www.w3.org/2000/svg">
<path fill-rule="evenodd" clip-rule="evenodd" d="M20.5 33C27.4036 33 33 27.4036 33 20.5C33 13.5964 27.4036 8 20.5 8C13.5964 8 8 13.5964 8 20.5C8 27.4036 13.5964 33 20.5 33ZM20.5 41C31.8218 41 41 31.8218 41 20.5C41 9.17816 31.8218 0 20.5 0C9.17816 0 0 9.17816 0 20.5C0 31.8218 9.17816 41 20.5 41Z" fill="black"/>
<path fill-rule="evenodd" clip-rule="evenodd" d="M110.5 33C117.404 33 123 27.4036 123 20.5C123 13.5964 117.404 8 110.5 8C103.596 8 98 13.5964 98 20.5C98 27.4036 103.596 33 110.5 33ZM110.5 41C121.822 41 131 31.8218 131 20.5C131 9.17816 121.822 0 110.5 0C99.1782 0 90 9.17816 90 20.5C90 31.8218 99.1782 41 110.5 41Z" fill="black"/>
<path fill-rule="evenodd" clip-rule="evenodd" d="M65.5 78C72.4036 78 78 72.4036 78 65.5C78 58.5964 72.4036 53 65.5 53C58.5964 53 53 58.5964 53 65.5C53 72.4036 58.5964 78 65.5 78ZM65.5 86C76.8218 86 86 76.8218 86 65.5C86 54.1782 76.8218 45 65.5 45C54.1782 45 45 54.1782 45 65.5C45 76.8218 54.1782 86 65.5 86Z" fill="black"/>
<path fill-rule="evenodd" clip-rule="evenodd" d="M20.5 124C27.4036 124 33 118.404 33 111.5C33 104.596 27.4036 99 20.5 99C13.5964 99 8 104.596 8 111.5C8 118.404 13.5964 124 20.5 124ZM20.5 132C31.8218 132 41 122.822 41 111.5C41 100.178 31.8218 91 20.5 91C9.17816 91 0 100.178 0 111.5C0 122.822 9.17816 132 20.5 132Z" fill="black"/>
<path fill-rule="evenodd" clip-rule="evenodd" d="M72 8H59C55.6863 8 53 10.6863 53 14V27C53 30.3137 55.6863 33 59 33H72C75.3137 33 78 30.3137 78 27V14C78 10.6863 75.3137 8 72 8ZM59 0C51.268 0 45 6.26801 45 14V27C45 34.732 51.268 41 59 41H72C79.732 41 86 34.732 86 27V14C86 6.26801 79.732 0 72 0H59Z" fill="black"/>
<path fill-rule="evenodd" clip-rule="evenodd" d="M117 53H104C100.686 53 98 55.6863 98 59V72C98 75.3137 100.686 78 104 78H117C120.314 78 123 75.3137 123 72V59C123 55.6863 120.314 53 117 53ZM104 45C96.268 45 90 51.268 90 59V72C90 79.732 96.268 86 104 86H117C124.732 86 131 79.732 131 72V59C131 51.268 124.732 45 117 45H104Z" fill="black"/>
<path fill-rule="evenodd" clip-rule="evenodd" d="M117 98H104C100.686 98 98 100.686 98 104V117C98 120.314 100.686 123 104 123H117C120.314 123 123 120.314 123 117V104C123 100.686 120.314 98 117 98ZM104 90C96.268 90 90 96.268 90 104V117C90 124.732 96.268 131 104 131H117C124.732 131 131 124.732 131 117V104C131 96.268 124.732 90 117 90H104Z" fill="black"/>
<path fill-rule="evenodd" clip-rule="evenodd" d="M72 98H59C55.6863 98 53 100.686 53 104V117C53 120.314 55.6863 123 59 123H72C75.3137 123 78 120.314 78 117V104C78 100.686 75.3137 98 72 98ZM59 90C51.268 90 45 96.268 45 104V117C45 124.732 51.268 131 59 131H72C79.732 131 86 124.732 86 117V104C86 96.268 79.732 90 72 90H59Z" fill="black"/>
<path fill-rule="evenodd" clip-rule="evenodd" d="M27 53H14C10.6863 53 8 55.6863 8 59V72C8 75.3137 10.6863 78 14 78H27C30.3137 78 33 75.3137 33 72V59C33 55.6863 30.3137 53 27 53ZM14 45C6.26801 45 0 51.268 0 59V72C0 79.732 6.26801 86 14 86H27C34.732 86 41 79.732 41 72V59C41 51.268 34.732 45 27 45H14Z" fill="black"/>
</svg>
