<svg width="72" height="158" viewBox="0 0 72 158" fill="none" xmlns="http://www.w3.org/2000/svg">
<path fill-rule="evenodd" clip-rule="evenodd" d="M37 8H34C31.2386 8 29 10.2386 29 13V36H42V13C42 10.2386 39.7614 8 37 8ZM21 13V36H8H0V44V61V69H8H64H72V61V44V36H64H50V13C50 5.8203 44.1797 0 37 0H34C26.8203 0 21 5.8203 21 13ZM42 44H50H64V61H8V44H21H29H42ZM8 86H64V142C64 146.418 60.4183 150 56 150H16C11.5817 150 8 146.418 8 142V86ZM0 78H8H64H72V86V142C72 150.837 64.8366 158 56 158H16C7.16344 158 0 150.837 0 142V86V78Z" fill="black"/>
</svg>
