<svg width="20" height="17" viewBox="0 0 20 17" fill="none" xmlns="http://www.w3.org/2000/svg">
<path d="M0.139671 5.93512C0.26672 5.77502 0.462162 5.68082 0.669741 5.68082H3.09437L6.24957 0.327578C6.4338 0.0143234 6.84393 -0.0926528 7.16397 0.0873433C7.4844 0.267339 7.59445 0.667485 7.40985 0.980735L4.63974 5.68066H15.3602L12.5901 0.981202C12.4055 0.667947 12.5155 0.267779 12.836 0.0878107C13.1566 -0.0921854 13.5662 0.0147908 13.7504 0.328046L16.9056 5.68129H19.3302C19.5376 5.68129 19.7334 5.7753 19.8603 5.93558C19.9873 6.09605 20.0307 6.30488 19.9782 6.50114L17.2996 16.5113C17.2224 16.7992 16.9562 17 16.6516 17H3.34826C3.0437 17 2.77744 16.799 2.70028 16.5113L0.0217171 6.50114C-0.0305996 6.30472 0.0127506 6.09588 0.139429 5.93544L0.139671 5.93512ZM3.86565 15.6911H16.1344L18.4629 6.98941H1.53673L3.86565 15.6911Z" fill="white"/>
<rect x="4" y="10" width="2" height="2" fill="white"/>
<rect x="9" y="10" width="2" height="2" fill="white"/>
<rect x="14" y="10" width="2" height="2" fill="white"/>
</svg>
