<svg width="38" height="48" viewBox="0 0 38 48" fill="none" xmlns="http://www.w3.org/2000/svg">
<path fill-rule="evenodd" clip-rule="evenodd" d="M24 2H5C3.34315 2 2 3.34315 2 5V37H18V32C18 29.2386 20.2386 27 23 27V23C23 20.581 24.7178 18.5633 27 18.1V5C27 3.34315 25.6569 2 24 2ZM18 42.5V39H14.5H2V43C2 44.6569 3.34315 46 5 46H14.5H18V42.5ZM18 42.5C18 44.433 16.433 46 14.5 46C12.567 46 11 44.433 11 42.5C11 40.567 12.567 39 14.5 39C16.433 39 18 40.567 18 42.5ZM23 46H20V32C20 30.3431 21.3431 29 23 29H25H27H29H31H33C34.6569 29 36 30.3431 36 32V46H31H28.0004H24H23ZM20 48H24H36H38V46V32C38 29.2386 35.7614 27 33 27V23C33 20.581 31.2822 18.5633 29 18.1V5C29 2.23858 26.7614 0 24 0H5C2.23858 0 0 2.23858 0 5V43C0 45.7614 2.23858 48 5 48H18H20ZM31 23C31 21.6938 30.1652 20.5825 29 20.1707C28.6872 20.0602 28.3506 20 28 20C27.6494 20 27.3128 20.0602 27 20.1707C25.8348 20.5825 25 21.6938 25 23V27H27H29H31V23ZM7 23H15V25H7V23ZM10 29H7V31H10V29ZM19.6178 8.21372C20.0521 8.55494 20.1275 9.18359 19.7863 9.61786L13.5414 17.5659L9.24744 12.6585C8.88375 12.2429 8.92587 11.6111 9.34151 11.2475C9.75715 10.8838 10.3889 10.9259 10.7526 11.3415L13.4586 14.4341L18.2137 8.38222C18.5549 7.94795 19.1836 7.87251 19.6178 8.21372ZM16 42.5C16 43.3284 15.3284 44 14.5 44C13.6716 44 13 43.3284 13 42.5C13 41.6716 13.6716 41 14.5 41C15.3284 41 16 41.6716 16 42.5Z" fill="white"/>
</svg>
