<svg width="39" height="50" viewBox="0 0 39 50" fill="none" xmlns="http://www.w3.org/2000/svg">
<rect x="6" y="26.2744" width="14" height="2" fill="black"/>
<rect x="6" y="32.2744" width="9" height="2" fill="black"/>
<rect x="6" y="38.2744" width="20" height="2" fill="black"/>
<rect x="6" y="18.2744" width="3" height="2" fill="black"/>
<rect x="12" y="18.2744" width="4" height="2" fill="black"/>
<path fill-rule="evenodd" clip-rule="evenodd" d="M13.3417 7.27441H2H0V9.27441V47.2744V49.2744H2H30H32V47.2744V16.2685L30 18.2685V47.2744H2V9.27441H13.7266C13.4998 8.6268 13.3715 7.95237 13.3417 7.27441Z" fill="black"/>
<mask id="path-7-inside-1_589_4797" fill="white">
<path fill-rule="evenodd" clip-rule="evenodd" d="M15.3754 2.04048C12.6548 4.76111 12.6548 9.17214 15.3754 11.8928L23.1409 19.6582C23.3257 19.8742 23.5203 20.0846 23.7246 20.289L25.852 22.4164L25.8756 22.3929L25.8991 22.4164L28.0265 20.289C28.2309 20.0846 28.4254 19.8742 28.6102 19.6582L36.3757 11.8928C39.0963 9.17214 39.0963 4.76111 36.3757 2.04048C33.655 -0.680159 29.244 -0.680159 26.5234 2.04048L25.8756 2.6883L25.2277 2.04048C22.5071 -0.680159 18.0961 -0.680159 15.3754 2.04048Z"/>
</mask>
<path d="M15.3754 11.8928L16.7897 10.4786H16.7897L15.3754 11.8928ZM15.3754 2.04048L16.7897 3.45469L15.3754 2.04048ZM23.1409 19.6582L24.6605 18.3579L24.61 18.2989L24.5551 18.244L23.1409 19.6582ZM23.7246 20.289L25.1389 18.8748L25.1389 18.8748L23.7246 20.289ZM25.852 22.4164L24.4378 23.8306L25.8521 25.2449L27.2663 23.8306L25.852 22.4164ZM25.8756 22.3929L27.2898 20.9787L25.8756 19.5644L24.4613 20.9787L25.8756 22.3929ZM25.8991 22.4164L24.4848 23.8306L25.899 25.2449L27.3133 23.8306L25.8991 22.4164ZM28.0265 20.289L26.6123 18.8748H26.6123L28.0265 20.289ZM28.6102 19.6582L27.196 18.244L27.1411 18.2989L27.0906 18.3579L28.6102 19.6582ZM36.3757 2.04048L34.9615 3.45469L36.3757 2.04048ZM25.8756 2.6883L24.4613 4.10252L25.8756 5.51673L27.2898 4.10252L25.8756 2.6883ZM16.7897 10.4786C14.8501 8.53897 14.8501 5.39428 16.7897 3.45469L13.9612 0.626264C10.4595 4.12795 10.4595 9.8053 13.9612 13.307L16.7897 10.4786ZM24.5551 18.244L16.7897 10.4786L13.9612 13.307L21.7267 21.0724L24.5551 18.244ZM21.6213 20.9585C21.8397 21.2138 22.0694 21.4622 22.3104 21.7032L25.1389 18.8748C24.9711 18.7071 24.8117 18.5346 24.6605 18.3579L21.6213 20.9585ZM22.3104 21.7032L24.4378 23.8306L27.2663 21.0022L25.1389 18.8748L22.3104 21.7032ZM27.2663 23.8306L27.2898 23.8071L24.4613 20.9787L24.4378 21.0022L27.2663 23.8306ZM27.3133 21.0022L27.2898 20.9787L24.4613 23.8071L24.4848 23.8306L27.3133 21.0022ZM26.6123 18.8748L24.4849 21.0022L27.3133 23.8306L29.4407 21.7032L26.6123 18.8748ZM27.0906 18.3579C26.9394 18.5346 26.78 18.7071 26.6123 18.8748L29.4407 21.7032C29.6817 21.4622 29.9114 21.2138 30.1298 20.9585L27.0906 18.3579ZM30.0244 21.0724L37.7899 13.307L34.9615 10.4786L27.196 18.244L30.0244 21.0724ZM37.7899 13.307C41.2916 9.8053 41.2916 4.12795 37.7899 0.626264L34.9615 3.45469C36.9011 5.39428 36.9011 8.53897 34.9615 10.4786L37.7899 13.307ZM37.7899 0.626264C34.2882 -2.87542 28.6109 -2.87542 25.1092 0.626264L27.9376 3.45469C29.8772 1.5151 33.0219 1.5151 34.9615 3.45469L37.7899 0.626264ZM25.1092 0.626264L24.4613 1.27409L27.2898 4.10252L27.9376 3.45469L25.1092 0.626264ZM23.8135 3.45469L24.4613 4.10252L27.2898 1.27409L26.6419 0.626264L23.8135 3.45469ZM16.7897 3.45469C18.7292 1.5151 21.8739 1.5151 23.8135 3.45469L26.6419 0.626264C23.1403 -2.87542 17.4629 -2.87542 13.9612 0.626264L16.7897 3.45469Z" fill="black" mask="url(#path-7-inside-1_589_4797)"/>
</svg>
