<svg width="48" height="44" viewBox="0 0 48 44" fill="none" xmlns="http://www.w3.org/2000/svg">
<path fill-rule="evenodd" clip-rule="evenodd" d="M10 35.4589V42V44H12H46H48V42V22V20H46H37.4343L36.3028 22H46V27.207C45.8298 27.2552 45.663 27.3113 45.5 27.3749C43.4513 28.175 42 30.168 42 32.5C42 34.832 43.4513 36.825 45.5 37.6251C45.663 37.6887 45.8298 37.7448 46 37.793V42H36V22.5353L35.499 23.4209L35.4545 28.5L34 29.3568V42H12V35.4764L10 35.4589ZM44 32.5C44 33.6894 44.5933 34.7402 45.5 35.3727V29.6273C44.5933 30.2598 44 31.3106 44 32.5Z" fill="black"/>
<path d="M22.9285 3.37139L23.1536 3.49872L23.4121 3.50098L27.9255 3.54052L30.2165 7.42948L30.3477 7.65227L30.5705 7.78352L34.4595 10.0745L34.499 14.5879L34.5013 14.8464L34.6286 15.0715L36.8511 19L34.6286 22.9285L34.5013 23.1536L34.499 23.4121L34.4595 27.9255L30.5705 30.2165L30.3477 30.3477L30.2165 30.5705L27.9255 34.4595L23.4121 34.499L23.1536 34.5013L22.9285 34.6286L19 36.8511L15.0715 34.6286L14.8464 34.5013L14.5879 34.499L10.0745 34.4595L7.78352 30.5705L7.65227 30.3477L7.42948 30.2165L3.54052 27.9255L3.50098 23.4121L3.49872 23.1536L3.37139 22.9285L1.14893 19L3.37139 15.0715L3.49872 14.8464L3.50098 14.5879L3.54052 10.0745L7.42948 7.78352L7.65227 7.65227L7.78352 7.42948L10.0745 3.54052L14.5879 3.50098L14.8464 3.49872L15.0715 3.37139L19 1.14893L22.9285 3.37139Z" stroke="black" stroke-width="2"/>
<circle cx="25.5" cy="23.5" r="3.5" stroke="black" stroke-width="2"/>
<circle cx="13.5" cy="14.5" r="3.5" stroke="black" stroke-width="2"/>
<rect x="23" y="11" width="2" height="18" transform="rotate(30 23 11)" fill="black"/>
</svg>
